<svg xmlns="http://www.w3.org/2000/svg" xmlns:xlink="http://www.w3.org/1999/xlink" width="321" zoomAndPan="magnify" viewBox="0 0 240.75 141.750002" height="188" preserveAspectRatio="xMidYMid meet" version="1.0"><defs><g/><clipPath id="cd223f3a54"><path d="M 0.0859375 0 L 240.414062 0 L 240.414062 141.5 L 0.0859375 141.5 Z M 0.0859375 0 " clip-rule="nonzero"/></clipPath><clipPath id="6635e81a2a"><path d="M 0.0859375 0 L 32 0 L 32 32 L 0.0859375 32 Z M 0.0859375 0 " clip-rule="nonzero"/></clipPath><clipPath id="bf93c7ecba"><path d="M -102.285156 -19.265625 L -19.34375 -102.207031 L 52.570312 -30.289062 L -30.371094 52.648438 Z M -102.285156 -19.265625 " clip-rule="nonzero"/></clipPath><clipPath id="6470e80b61"><path d="M -40.078125 -81.46875 L -81.550781 -40 L -66.367188 16.652344 L -9.714844 31.832031 L 31.753906 -9.636719 L 16.574219 -66.289062 Z M -40.078125 -81.46875 " clip-rule="nonzero"/></clipPath><clipPath id="18ffaea714"><path d="M 0.0859375 0 L 75 0 L 75 17 L 0.0859375 17 Z M 0.0859375 0 " clip-rule="nonzero"/></clipPath><clipPath id="a25d779bfe"><path d="M -59.355469 -34.820312 L 23.582031 -117.761719 L 95.5 -45.84375 L 12.558594 37.09375 Z M -59.355469 -34.820312 " clip-rule="nonzero"/></clipPath><clipPath id="01428e9574"><path d="M 2.847656 -97.023438 L -38.621094 -55.554688 L -23.441406 1.097656 L 33.210938 16.277344 L 74.683594 -25.191406 L 59.5 -81.84375 Z M 2.847656 -97.023438 " clip-rule="nonzero"/></clipPath><clipPath id="00c788c301"><path d="M 214 107 L 240.414062 107 L 240.414062 141.5 L 214 141.5 Z M 214 107 " clip-rule="nonzero"/></clipPath><clipPath id="721726db79"><path d="M 348.6875 158.347656 L 265.75 241.285156 L 193.832031 169.371094 L 276.773438 86.429688 Z M 348.6875 158.347656 " clip-rule="nonzero"/></clipPath><clipPath id="5f1921e8f4"><path d="M 286.484375 220.550781 L 327.953125 179.082031 L 312.773438 122.429688 L 256.121094 107.246094 L 214.648438 148.71875 L 229.832031 205.371094 Z M 286.484375 220.550781 " clip-rule="nonzero"/></clipPath><clipPath id="8dd787dcca"><path d="M 164 127 L 240.414062 127 L 240.414062 141.5 L 164 141.5 Z M 164 127 " clip-rule="nonzero"/></clipPath><clipPath id="a1ac82dbbc"><path d="M 298.757812 178.214844 L 215.820312 261.152344 L 143.90625 189.238281 L 226.84375 106.296875 Z M 298.757812 178.214844 " clip-rule="nonzero"/></clipPath><clipPath id="1413e0370d"><path d="M 236.554688 240.417969 L 278.023438 198.949219 L 262.84375 142.296875 L 206.191406 127.113281 L 164.722656 168.585938 L 179.902344 225.234375 Z M 236.554688 240.417969 " clip-rule="nonzero"/></clipPath><clipPath id="1344c778da"><path d="M 205.625 14.148438 L 226.460938 14.148438 L 226.460938 35 L 205.625 35 Z M 205.625 14.148438 " clip-rule="nonzero"/></clipPath><clipPath id="e32daba48e"><path d="M 14.234375 106.25 L 35.070312 106.25 L 35.070312 127.210938 L 14.234375 127.210938 Z M 14.234375 106.25 " clip-rule="nonzero"/></clipPath><clipPath id="8c6a186553"><path d="M 109.871094 49.011719 L 131 49.011719 L 131 71.171875 L 109.871094 71.171875 Z M 109.871094 49.011719 " clip-rule="nonzero"/></clipPath></defs><g clip-path="url(#cd223f3a54)"><path fill="#ffffff" d="M 0.0859375 0 L 240.414062 0 L 240.414062 141.5 L 0.0859375 141.5 Z M 0.0859375 0 " fill-opacity="1" fill-rule="nonzero"/><path fill="#004aad" d="M 0.0859375 0 L 240.414062 0 L 240.414062 141.5 L 0.0859375 141.5 Z M 0.0859375 0 " fill-opacity="1" fill-rule="nonzero"/></g><g clip-path="url(#6635e81a2a)"><g clip-path="url(#bf93c7ecba)"><g clip-path="url(#6470e80b61)"><path fill="#ffffff" d="M -102.285156 -19.265625 L -19.34375 -102.207031 L 52.570312 -30.289062 L -30.371094 52.648438 Z M -102.285156 -19.265625 " fill-opacity="1" fill-rule="nonzero"/></g></g></g><g clip-path="url(#18ffaea714)"><g clip-path="url(#a25d779bfe)"><g clip-path="url(#01428e9574)"><path fill="#529cff" d="M -59.355469 -34.820312 L 23.582031 -117.761719 L 95.5 -45.84375 L 12.558594 37.09375 Z M -59.355469 -34.820312 " fill-opacity="1" fill-rule="nonzero"/></g></g></g><g clip-path="url(#00c788c301)"><g clip-path="url(#721726db79)"><g clip-path="url(#5f1921e8f4)"><path fill="#ffffff" d="M 348.6875 158.347656 L 265.75 241.285156 L 193.832031 169.371094 L 276.773438 86.429688 Z M 348.6875 158.347656 " fill-opacity="1" fill-rule="nonzero"/></g></g></g><g clip-path="url(#8dd787dcca)"><g clip-path="url(#a1ac82dbbc)"><g clip-path="url(#1413e0370d)"><path fill="#529cff" d="M 298.757812 178.214844 L 215.820312 261.152344 L 143.90625 189.238281 L 226.84375 106.296875 Z M 298.757812 178.214844 " fill-opacity="1" fill-rule="nonzero"/></g></g></g><g clip-path="url(#1344c778da)"><path fill="#ffffff" d="M 205.628906 14.144531 L 226.460938 14.144531 L 226.460938 34.980469 L 224.851562 34.980469 L 224.851562 15.753906 L 205.628906 15.753906 Z M 205.628906 14.144531 " fill-opacity="1" fill-rule="nonzero"/></g><g clip-path="url(#e32daba48e)"><path fill="#ffffff" d="M 35.066406 127.214844 L 14.234375 127.214844 L 14.234375 106.382812 L 15.839844 106.382812 L 15.839844 125.605469 L 35.066406 125.605469 Z M 35.066406 127.214844 " fill-opacity="1" fill-rule="nonzero"/></g><g fill="#ffffff" fill-opacity="1"><g transform="translate(109.770653, 111.941773)"><g><path d="M 4.234375 -4.203125 L 2.53125 0 L 1.734375 0 L 0.03125 -4.203125 L 1.03125 -4.203125 L 1.90625 -1.84375 L 2.125 -1.1875 L 2.359375 -1.84375 L 3.234375 -4.203125 Z M 4.234375 -4.203125 "/></g></g></g><g fill="#ffffff" fill-opacity="1"><g transform="translate(114.03054, 111.941773)"><g><path d="M 0.328125 -3.65625 C 0.328125 -3.8125 0.378906 -3.941406 0.484375 -4.046875 C 0.585938 -4.148438 0.710938 -4.203125 0.859375 -4.203125 C 1.015625 -4.203125 1.144531 -4.148438 1.25 -4.046875 C 1.351562 -3.941406 1.40625 -3.8125 1.40625 -3.65625 C 1.40625 -3.507812 1.351562 -3.382812 1.25 -3.28125 C 1.144531 -3.175781 1.015625 -3.125 0.859375 -3.125 C 0.710938 -3.125 0.585938 -3.175781 0.484375 -3.28125 C 0.378906 -3.382812 0.328125 -3.507812 0.328125 -3.65625 Z M 1.328125 0 L 0.40625 0 L 0.40625 -2.734375 L 1.328125 -2.734375 Z M 1.328125 0 "/></g></g></g><g fill="#ffffff" fill-opacity="1"><g transform="translate(115.761703, 111.941773)"><g><path d="M 2.890625 -1.90625 L 1.984375 -1.90625 C 1.972656 -2.019531 1.921875 -2.097656 1.828125 -2.140625 C 1.734375 -2.191406 1.640625 -2.21875 1.546875 -2.21875 C 1.453125 -2.21875 1.363281 -2.191406 1.28125 -2.140625 C 1.207031 -2.097656 1.171875 -2.039062 1.171875 -1.96875 C 1.171875 -1.90625 1.210938 -1.859375 1.296875 -1.828125 C 1.378906 -1.796875 1.488281 -1.769531 1.625 -1.75 C 1.757812 -1.726562 1.898438 -1.703125 2.046875 -1.671875 C 2.203125 -1.648438 2.347656 -1.609375 2.484375 -1.546875 C 2.617188 -1.484375 2.726562 -1.394531 2.8125 -1.28125 C 2.894531 -1.164062 2.9375 -1.007812 2.9375 -0.8125 C 2.9375 -0.601562 2.878906 -0.429688 2.765625 -0.296875 C 2.648438 -0.171875 2.492188 -0.078125 2.296875 -0.015625 C 2.097656 0.0351562 1.863281 0.0625 1.59375 0.0625 C 1.320312 0.0625 1.078125 0.0234375 0.859375 -0.046875 C 0.648438 -0.117188 0.476562 -0.234375 0.34375 -0.390625 C 0.21875 -0.546875 0.144531 -0.753906 0.125 -1.015625 L 1.046875 -1.015625 C 1.046875 -0.878906 1.078125 -0.78125 1.140625 -0.71875 C 1.210938 -0.65625 1.289062 -0.613281 1.375 -0.59375 C 1.46875 -0.582031 1.546875 -0.578125 1.609375 -0.578125 C 1.722656 -0.578125 1.816406 -0.597656 1.890625 -0.640625 C 1.960938 -0.679688 2 -0.738281 2 -0.8125 C 2 -0.90625 1.957031 -0.972656 1.875 -1.015625 C 1.789062 -1.066406 1.679688 -1.101562 1.546875 -1.125 C 1.410156 -1.15625 1.265625 -1.179688 1.109375 -1.203125 C 0.960938 -1.234375 0.820312 -1.269531 0.6875 -1.3125 C 0.5625 -1.363281 0.453125 -1.4375 0.359375 -1.53125 C 0.273438 -1.625 0.234375 -1.753906 0.234375 -1.921875 C 0.234375 -2.203125 0.34375 -2.414062 0.5625 -2.5625 C 0.78125 -2.71875 1.117188 -2.796875 1.578125 -2.796875 C 1.929688 -2.796875 2.226562 -2.722656 2.46875 -2.578125 C 2.707031 -2.441406 2.847656 -2.21875 2.890625 -1.90625 Z M 2.890625 -1.90625 "/></g></g></g><g fill="#ffffff" fill-opacity="1"><g transform="translate(118.883975, 111.941773)"><g><path d="M 0.328125 -3.65625 C 0.328125 -3.8125 0.378906 -3.941406 0.484375 -4.046875 C 0.585938 -4.148438 0.710938 -4.203125 0.859375 -4.203125 C 1.015625 -4.203125 1.144531 -4.148438 1.25 -4.046875 C 1.351562 -3.941406 1.40625 -3.8125 1.40625 -3.65625 C 1.40625 -3.507812 1.351562 -3.382812 1.25 -3.28125 C 1.144531 -3.175781 1.015625 -3.125 0.859375 -3.125 C 0.710938 -3.125 0.585938 -3.175781 0.484375 -3.28125 C 0.378906 -3.382812 0.328125 -3.507812 0.328125 -3.65625 Z M 1.328125 0 L 0.40625 0 L 0.40625 -2.734375 L 1.328125 -2.734375 Z M 1.328125 0 "/></g></g></g><g fill="#ffffff" fill-opacity="1"><g transform="translate(120.615139, 111.941773)"><g><path d="M 1.546875 -2.015625 L 1.546875 0 L 0.625 0 L 0.625 -2.015625 L 0.125 -2.015625 L 0.125 -2.734375 L 0.625 -2.734375 L 0.625 -3.765625 L 1.546875 -3.765625 L 1.546875 -2.734375 L 2.03125 -2.734375 L 2.03125 -2.015625 Z M 1.546875 -2.015625 "/></g></g></g><g fill="#ffffff" fill-opacity="1"><g transform="translate(122.772908, 111.941773)"><g/></g></g><g fill="#ffffff" fill-opacity="1"><g transform="translate(124.318584, 111.941773)"><g><path d="M 0.3125 -1.171875 L 0.3125 -2.734375 L 1.234375 -2.734375 L 1.234375 -1.171875 C 1.234375 -1.015625 1.265625 -0.894531 1.328125 -0.8125 C 1.398438 -0.726562 1.507812 -0.6875 1.65625 -0.6875 C 1.800781 -0.6875 1.921875 -0.753906 2.015625 -0.890625 C 2.117188 -1.023438 2.171875 -1.179688 2.171875 -1.359375 L 2.171875 -2.734375 L 3.09375 -2.734375 L 3.09375 0 L 2.171875 0 L 2.171875 -0.328125 C 2.078125 -0.210938 1.957031 -0.117188 1.8125 -0.046875 C 1.675781 0.0234375 1.519531 0.0625 1.34375 0.0625 C 0.976562 0.0625 0.710938 -0.0507812 0.546875 -0.28125 C 0.390625 -0.507812 0.3125 -0.804688 0.3125 -1.171875 Z M 0.3125 -1.171875 "/></g></g></g><g fill="#ffffff" fill-opacity="1"><g transform="translate(127.787083, 111.941773)"><g><path d="M 2.890625 -1.90625 L 1.984375 -1.90625 C 1.972656 -2.019531 1.921875 -2.097656 1.828125 -2.140625 C 1.734375 -2.191406 1.640625 -2.21875 1.546875 -2.21875 C 1.453125 -2.21875 1.363281 -2.191406 1.28125 -2.140625 C 1.207031 -2.097656 1.171875 -2.039062 1.171875 -1.96875 C 1.171875 -1.90625 1.210938 -1.859375 1.296875 -1.828125 C 1.378906 -1.796875 1.488281 -1.769531 1.625 -1.75 C 1.757812 -1.726562 1.898438 -1.703125 2.046875 -1.671875 C 2.203125 -1.648438 2.347656 -1.609375 2.484375 -1.546875 C 2.617188 -1.484375 2.726562 -1.394531 2.8125 -1.28125 C 2.894531 -1.164062 2.9375 -1.007812 2.9375 -0.8125 C 2.9375 -0.601562 2.878906 -0.429688 2.765625 -0.296875 C 2.648438 -0.171875 2.492188 -0.078125 2.296875 -0.015625 C 2.097656 0.0351562 1.863281 0.0625 1.59375 0.0625 C 1.320312 0.0625 1.078125 0.0234375 0.859375 -0.046875 C 0.648438 -0.117188 0.476562 -0.234375 0.34375 -0.390625 C 0.21875 -0.546875 0.144531 -0.753906 0.125 -1.015625 L 1.046875 -1.015625 C 1.046875 -0.878906 1.078125 -0.78125 1.140625 -0.71875 C 1.210938 -0.65625 1.289062 -0.613281 1.375 -0.59375 C 1.46875 -0.582031 1.546875 -0.578125 1.609375 -0.578125 C 1.722656 -0.578125 1.816406 -0.597656 1.890625 -0.640625 C 1.960938 -0.679688 2 -0.738281 2 -0.8125 C 2 -0.90625 1.957031 -0.972656 1.875 -1.015625 C 1.789062 -1.066406 1.679688 -1.101562 1.546875 -1.125 C 1.410156 -1.15625 1.265625 -1.179688 1.109375 -1.203125 C 0.960938 -1.234375 0.820312 -1.269531 0.6875 -1.3125 C 0.5625 -1.363281 0.453125 -1.4375 0.359375 -1.53125 C 0.273438 -1.625 0.234375 -1.753906 0.234375 -1.921875 C 0.234375 -2.203125 0.34375 -2.414062 0.5625 -2.5625 C 0.78125 -2.71875 1.117188 -2.796875 1.578125 -2.796875 C 1.929688 -2.796875 2.226562 -2.722656 2.46875 -2.578125 C 2.707031 -2.441406 2.847656 -2.21875 2.890625 -1.90625 Z M 2.890625 -1.90625 "/></g></g></g><g fill="#ffffff" fill-opacity="1"><g transform="translate(83.328277, 121.797935)"><g><path d="M 3.125 0.34375 L 2.234375 -1.84375 L 1.375 0.34375 L 0.0625 -2.71875 L 0.546875 -2.71875 L 1.359375 -0.625 L 2.234375 -2.859375 L 3.125 -0.625 L 3.9375 -2.71875 L 4.421875 -2.71875 Z M 3.125 0.34375 "/></g></g></g><g fill="#ffffff" fill-opacity="1"><g transform="translate(87.804564, 121.797935)"><g><path d="M 3.125 0.34375 L 2.234375 -1.84375 L 1.375 0.34375 L 0.0625 -2.71875 L 0.546875 -2.71875 L 1.359375 -0.625 L 2.234375 -2.859375 L 3.125 -0.625 L 3.9375 -2.71875 L 4.421875 -2.71875 Z M 3.125 0.34375 "/></g></g></g><g fill="#ffffff" fill-opacity="1"><g transform="translate(92.280851, 121.797935)"><g><path d="M 3.125 0.34375 L 2.234375 -1.84375 L 1.375 0.34375 L 0.0625 -2.71875 L 0.546875 -2.71875 L 1.359375 -0.625 L 2.234375 -2.859375 L 3.125 -0.625 L 3.9375 -2.71875 L 4.421875 -2.71875 Z M 3.125 0.34375 "/></g></g></g><g fill="#ffffff" fill-opacity="1"><g transform="translate(96.757138, 121.797935)"><g><path d="M 0.828125 0.0625 C 0.734375 0.0625 0.648438 0.0234375 0.578125 -0.046875 C 0.503906 -0.109375 0.46875 -0.1875 0.46875 -0.28125 C 0.46875 -0.375 0.5 -0.457031 0.5625 -0.53125 C 0.632812 -0.601562 0.722656 -0.640625 0.828125 -0.640625 C 0.921875 -0.640625 1.003906 -0.601562 1.078125 -0.53125 C 1.148438 -0.46875 1.1875 -0.390625 1.1875 -0.296875 C 1.1875 -0.191406 1.148438 -0.109375 1.078125 -0.046875 C 1.003906 0.0234375 0.921875 0.0625 0.828125 0.0625 Z M 0.828125 0.0625 "/></g></g></g><g fill="#ffffff" fill-opacity="1"><g transform="translate(98.407925, 121.797935)"><g><path d="M 3.921875 -0.015625 L 3.921875 -1.71875 C 3.921875 -2 3.832031 -2.195312 3.65625 -2.3125 C 3.59375 -2.34375 3.492188 -2.359375 3.359375 -2.359375 C 3.234375 -2.359375 3.113281 -2.320312 3 -2.25 C 2.894531 -2.175781 2.804688 -2.082031 2.734375 -1.96875 C 2.710938 -1.925781 2.691406 -1.875 2.671875 -1.8125 C 2.671875 -1.78125 2.671875 -1.75 2.671875 -1.71875 L 2.671875 -0.015625 L 2.234375 -0.015625 L 2.234375 -1.71875 C 2.234375 -2 2.144531 -2.195312 1.96875 -2.3125 C 1.90625 -2.34375 1.8125 -2.359375 1.6875 -2.359375 C 1.5625 -2.359375 1.441406 -2.320312 1.328125 -2.25 C 1.210938 -2.175781 1.125 -2.082031 1.0625 -1.96875 C 0.976562 -1.8125 0.921875 -1.625 0.890625 -1.40625 L 0.890625 -0.015625 L 0.46875 -0.015625 L 0.46875 -2.734375 L 0.890625 -2.734375 L 0.890625 -2.296875 C 0.972656 -2.441406 1.078125 -2.554688 1.203125 -2.640625 C 1.347656 -2.742188 1.515625 -2.796875 1.703125 -2.796875 C 1.890625 -2.796875 2.039062 -2.765625 2.15625 -2.703125 C 2.269531 -2.648438 2.367188 -2.570312 2.453125 -2.46875 C 2.492188 -2.40625 2.53125 -2.34375 2.5625 -2.28125 C 2.644531 -2.425781 2.753906 -2.546875 2.890625 -2.640625 C 3.023438 -2.742188 3.1875 -2.796875 3.375 -2.796875 C 3.5625 -2.796875 3.71875 -2.765625 3.84375 -2.703125 C 3.957031 -2.648438 4.050781 -2.570312 4.125 -2.46875 C 4.269531 -2.269531 4.34375 -2.019531 4.34375 -1.71875 L 4.34375 -0.015625 Z M 3.921875 -0.015625 "/></g></g></g><g fill="#ffffff" fill-opacity="1"><g transform="translate(103.125337, 121.797935)"><g><path d="M 3.125 -1.421875 L 3.125 -1.1875 L 0.734375 -1.1875 C 0.773438 -0.957031 0.890625 -0.769531 1.078125 -0.625 C 1.265625 -0.46875 1.472656 -0.390625 1.703125 -0.390625 C 1.859375 -0.390625 2.007812 -0.425781 2.15625 -0.5 C 2.289062 -0.570312 2.40625 -0.671875 2.5 -0.796875 L 3 -0.796875 C 2.882812 -0.535156 2.710938 -0.332031 2.484375 -0.1875 C 2.242188 -0.03125 2.003906 0.046875 1.765625 0.046875 C 1.523438 0.046875 1.320312 0.0078125 1.15625 -0.0625 C 0.976562 -0.132812 0.828125 -0.238281 0.703125 -0.375 C 0.421875 -0.644531 0.28125 -0.976562 0.28125 -1.375 C 0.28125 -1.769531 0.421875 -2.101562 0.703125 -2.375 C 0.972656 -2.65625 1.304688 -2.796875 1.703125 -2.796875 C 2.078125 -2.796875 2.410156 -2.660156 2.703125 -2.390625 C 2.984375 -2.117188 3.125 -1.796875 3.125 -1.421875 Z M 2.671875 -1.5625 C 2.617188 -1.789062 2.5 -1.984375 2.3125 -2.140625 C 2.132812 -2.285156 1.929688 -2.359375 1.703125 -2.359375 C 1.347656 -2.359375 1.066406 -2.203125 0.859375 -1.890625 C 0.796875 -1.785156 0.753906 -1.675781 0.734375 -1.5625 Z M 2.671875 -1.5625 "/></g></g></g><g fill="#ffffff" fill-opacity="1"><g transform="translate(106.494913, 121.797935)"><g><path d="M 0.125 -2.3125 L 0.125 -2.71875 L 0.796875 -2.71875 L 0.796875 -3.78125 L 1.234375 -3.78125 L 1.234375 -2.71875 L 1.90625 -2.71875 L 1.90625 -2.3125 L 1.234375 -2.3125 L 1.234375 0 L 0.796875 0 L 0.796875 -2.3125 Z M 0.125 -2.3125 "/></g></g></g><g fill="#ffffff" fill-opacity="1"><g transform="translate(108.529027, 121.797935)"><g><path d="M 2.625 -1.359375 C 2.625 -1.617188 2.535156 -1.847656 2.359375 -2.046875 C 2.171875 -2.242188 1.941406 -2.34375 1.671875 -2.34375 C 1.398438 -2.34375 1.171875 -2.242188 0.984375 -2.046875 C 0.804688 -1.847656 0.71875 -1.617188 0.71875 -1.359375 C 0.71875 -1.097656 0.804688 -0.867188 0.984375 -0.671875 C 1.171875 -0.472656 1.398438 -0.375 1.671875 -0.375 C 1.941406 -0.375 2.171875 -0.472656 2.359375 -0.671875 C 2.535156 -0.867188 2.625 -1.097656 2.625 -1.359375 Z M 3.0625 0 L 2.625 0 L 2.625 -0.46875 C 2.601562 -0.4375 2.582031 -0.40625 2.5625 -0.375 C 2.300781 -0.0820312 1.984375 0.0625 1.609375 0.0625 C 1.234375 0.0625 0.914062 -0.0820312 0.65625 -0.375 C 0.40625 -0.65625 0.28125 -0.984375 0.28125 -1.359375 C 0.28125 -1.742188 0.40625 -2.070312 0.65625 -2.34375 C 0.914062 -2.632812 1.234375 -2.78125 1.609375 -2.78125 C 1.984375 -2.78125 2.300781 -2.632812 2.5625 -2.34375 C 2.582031 -2.320312 2.601562 -2.296875 2.625 -2.265625 L 2.625 -2.71875 L 3.0625 -2.71875 Z M 3.0625 0 "/></g></g></g><g fill="#ffffff" fill-opacity="1"><g transform="translate(112.053171, 121.797935)"><g><path d="M 1.3125 0.265625 L 0.0625 -2.71875 L 0.53125 -2.71875 L 1.3125 -0.703125 L 2.09375 -2.71875 L 2.5625 -2.71875 Z M 1.3125 0.265625 "/></g></g></g><g fill="#ffffff" fill-opacity="1"><g transform="translate(114.680825, 121.797935)"><g><path d="M 3.125 -1.421875 L 3.125 -1.1875 L 0.734375 -1.1875 C 0.773438 -0.957031 0.890625 -0.769531 1.078125 -0.625 C 1.265625 -0.46875 1.472656 -0.390625 1.703125 -0.390625 C 1.859375 -0.390625 2.007812 -0.425781 2.15625 -0.5 C 2.289062 -0.570312 2.40625 -0.671875 2.5 -0.796875 L 3 -0.796875 C 2.882812 -0.535156 2.710938 -0.332031 2.484375 -0.1875 C 2.242188 -0.03125 2.003906 0.046875 1.765625 0.046875 C 1.523438 0.046875 1.320312 0.0078125 1.15625 -0.0625 C 0.976562 -0.132812 0.828125 -0.238281 0.703125 -0.375 C 0.421875 -0.644531 0.28125 -0.976562 0.28125 -1.375 C 0.28125 -1.769531 0.421875 -2.101562 0.703125 -2.375 C 0.972656 -2.65625 1.304688 -2.796875 1.703125 -2.796875 C 2.078125 -2.796875 2.410156 -2.660156 2.703125 -2.390625 C 2.984375 -2.117188 3.125 -1.796875 3.125 -1.421875 Z M 2.671875 -1.5625 C 2.617188 -1.789062 2.5 -1.984375 2.3125 -2.140625 C 2.132812 -2.285156 1.929688 -2.359375 1.703125 -2.359375 C 1.347656 -2.359375 1.066406 -2.203125 0.859375 -1.890625 C 0.796875 -1.785156 0.753906 -1.675781 0.734375 -1.5625 Z M 2.671875 -1.5625 "/></g></g></g><g fill="#ffffff" fill-opacity="1"><g transform="translate(118.050401, 121.797935)"><g><path d="M 0.890625 0 L 0.46875 0 L 0.46875 -4.640625 L 0.890625 -4.640625 Z M 0.890625 0 "/></g></g></g><g fill="#ffffff" fill-opacity="1"><g transform="translate(119.410596, 121.797935)"><g><path d="M 0.90625 -3.65625 C 0.957031 -3.601562 0.984375 -3.539062 0.984375 -3.46875 C 0.984375 -3.394531 0.957031 -3.328125 0.90625 -3.265625 C 0.851562 -3.210938 0.789062 -3.1875 0.71875 -3.1875 C 0.632812 -3.1875 0.566406 -3.210938 0.515625 -3.265625 C 0.460938 -3.328125 0.4375 -3.394531 0.4375 -3.46875 C 0.4375 -3.539062 0.460938 -3.601562 0.515625 -3.65625 C 0.566406 -3.71875 0.632812 -3.75 0.71875 -3.75 C 0.789062 -3.75 0.851562 -3.71875 0.90625 -3.65625 Z M 0.921875 0 L 0.5 0 L 0.5 -2.71875 L 0.921875 -2.71875 Z M 0.921875 0 "/></g></g></g><g fill="#ffffff" fill-opacity="1"><g transform="translate(120.826436, 121.797935)"><g><path d="M 2.34375 0 L 2.34375 -1.703125 C 2.34375 -1.878906 2.304688 -2.03125 2.234375 -2.15625 C 2.148438 -2.28125 2.015625 -2.34375 1.828125 -2.34375 C 1.640625 -2.34375 1.488281 -2.304688 1.375 -2.234375 C 1.257812 -2.171875 1.164062 -2.082031 1.09375 -1.96875 C 0.957031 -1.757812 0.890625 -1.484375 0.890625 -1.140625 L 0.890625 0 L 0.46875 0 L 0.46875 -2.71875 L 0.890625 -2.71875 L 0.890625 -2.25 C 0.984375 -2.40625 1.101562 -2.53125 1.25 -2.625 C 1.394531 -2.726562 1.5625 -2.78125 1.75 -2.78125 C 1.945312 -2.78125 2.109375 -2.753906 2.234375 -2.703125 C 2.347656 -2.640625 2.445312 -2.5625 2.53125 -2.46875 C 2.695312 -2.269531 2.78125 -2.015625 2.78125 -1.703125 L 2.78125 0 Z M 2.34375 0 "/></g></g></g><g fill="#ffffff" fill-opacity="1"><g transform="translate(123.97344, 121.797935)"><g><path d="M 2.625 -1.359375 C 2.625 -1.617188 2.535156 -1.847656 2.359375 -2.046875 C 2.171875 -2.242188 1.941406 -2.34375 1.671875 -2.34375 C 1.398438 -2.34375 1.171875 -2.242188 0.984375 -2.046875 C 0.804688 -1.847656 0.71875 -1.617188 0.71875 -1.359375 C 0.71875 -1.097656 0.804688 -0.867188 0.984375 -0.671875 C 1.171875 -0.472656 1.398438 -0.375 1.671875 -0.375 C 1.941406 -0.375 2.171875 -0.472656 2.359375 -0.671875 C 2.535156 -0.867188 2.625 -1.097656 2.625 -1.359375 Z M 3.0625 0 L 2.625 0 L 2.625 -0.46875 C 2.601562 -0.4375 2.582031 -0.40625 2.5625 -0.375 C 2.300781 -0.0820312 1.984375 0.0625 1.609375 0.0625 C 1.234375 0.0625 0.914062 -0.0820312 0.65625 -0.375 C 0.40625 -0.65625 0.28125 -0.984375 0.28125 -1.359375 C 0.28125 -1.742188 0.40625 -2.070312 0.65625 -2.34375 C 0.914062 -2.632812 1.234375 -2.78125 1.609375 -2.78125 C 1.984375 -2.78125 2.300781 -2.632812 2.5625 -2.34375 C 2.582031 -2.320312 2.601562 -2.296875 2.625 -2.265625 L 2.625 -4.640625 L 3.0625 -4.640625 Z M 3.0625 0 "/></g></g></g><g fill="#ffffff" fill-opacity="1"><g transform="translate(127.497584, 121.797935)"><g><path d="M 2.34375 -0.46875 C 2.144531 -0.113281 1.84375 0.0625 1.4375 0.0625 C 1.132812 0.0625 0.894531 -0.0390625 0.71875 -0.25 C 0.550781 -0.445312 0.46875 -0.703125 0.46875 -1.015625 L 0.46875 -2.71875 L 0.890625 -2.71875 L 0.890625 -1.015625 C 0.890625 -0.835938 0.929688 -0.6875 1.015625 -0.5625 C 1.097656 -0.4375 1.234375 -0.375 1.421875 -0.375 C 1.753906 -0.375 1.992188 -0.484375 2.140625 -0.703125 C 2.273438 -0.910156 2.34375 -1.203125 2.34375 -1.578125 L 2.34375 -2.71875 L 2.78125 -2.71875 L 2.78125 0 L 2.34375 0 Z M 2.34375 -0.46875 "/></g></g></g><g fill="#ffffff" fill-opacity="1"><g transform="translate(130.644588, 121.797935)"><g><path d="M 0.859375 -0.390625 C 0.960938 -0.316406 1.101562 -0.28125 1.28125 -0.28125 C 1.675781 -0.28125 1.875 -0.425781 1.875 -0.71875 C 1.875 -0.894531 1.734375 -1.03125 1.453125 -1.125 C 1.328125 -1.164062 1.195312 -1.203125 1.0625 -1.234375 C 0.925781 -1.265625 0.796875 -1.304688 0.671875 -1.359375 C 0.535156 -1.421875 0.429688 -1.503906 0.359375 -1.609375 C 0.285156 -1.703125 0.25 -1.820312 0.25 -1.96875 C 0.25 -2.238281 0.34375 -2.441406 0.53125 -2.578125 C 0.726562 -2.710938 0.957031 -2.78125 1.21875 -2.78125 C 1.476562 -2.78125 1.695312 -2.726562 1.875 -2.625 C 2.050781 -2.519531 2.171875 -2.328125 2.234375 -2.046875 L 1.765625 -2.046875 C 1.710938 -2.203125 1.640625 -2.300781 1.546875 -2.34375 C 1.453125 -2.394531 1.335938 -2.421875 1.203125 -2.421875 C 1.066406 -2.421875 0.953125 -2.394531 0.859375 -2.34375 C 0.765625 -2.28125 0.71875 -2.1875 0.71875 -2.0625 C 0.71875 -1.9375 0.753906 -1.847656 0.828125 -1.796875 C 0.910156 -1.742188 1.007812 -1.695312 1.125 -1.65625 C 1.25 -1.613281 1.378906 -1.578125 1.515625 -1.546875 C 1.648438 -1.515625 1.78125 -1.472656 1.90625 -1.421875 C 2.1875 -1.285156 2.328125 -1.070312 2.328125 -0.78125 C 2.328125 -0.488281 2.222656 -0.269531 2.015625 -0.125 C 1.910156 -0.0625 1.796875 -0.0078125 1.671875 0.03125 C 1.546875 0.0625 1.40625 0.078125 1.25 0.078125 C 0.625 0.078125 0.265625 -0.203125 0.171875 -0.765625 L 0.625 -0.765625 C 0.664062 -0.585938 0.742188 -0.460938 0.859375 -0.390625 Z M 0.859375 -0.390625 "/></g></g></g><g fill="#ffffff" fill-opacity="1"><g transform="translate(133.13004, 121.797935)"><g><path d="M 0.125 -2.3125 L 0.125 -2.71875 L 0.796875 -2.71875 L 0.796875 -3.78125 L 1.234375 -3.78125 L 1.234375 -2.71875 L 1.90625 -2.71875 L 1.90625 -2.3125 L 1.234375 -2.3125 L 1.234375 0 L 0.796875 0 L 0.796875 -2.3125 Z M 0.125 -2.3125 "/></g></g></g><g fill="#ffffff" fill-opacity="1"><g transform="translate(135.164154, 121.797935)"><g><path d="M 1.859375 -2.15625 C 1.765625 -2.25 1.660156 -2.296875 1.546875 -2.296875 C 1.429688 -2.296875 1.332031 -2.265625 1.25 -2.203125 C 1.164062 -2.140625 1.097656 -2.0625 1.046875 -1.96875 C 0.941406 -1.789062 0.890625 -1.585938 0.890625 -1.359375 L 0.890625 0 L 0.46875 0 L 0.46875 -2.71875 L 0.890625 -2.71875 L 0.890625 -2.15625 L 0.921875 -2.265625 C 1.054688 -2.609375 1.28125 -2.78125 1.59375 -2.78125 C 1.6875 -2.78125 1.773438 -2.757812 1.859375 -2.71875 Z M 1.859375 -2.15625 "/></g></g></g><g fill="#ffffff" fill-opacity="1"><g transform="translate(137.086977, 121.797935)"><g><path d="M 0.90625 -3.65625 C 0.957031 -3.601562 0.984375 -3.539062 0.984375 -3.46875 C 0.984375 -3.394531 0.957031 -3.328125 0.90625 -3.265625 C 0.851562 -3.210938 0.789062 -3.1875 0.71875 -3.1875 C 0.632812 -3.1875 0.566406 -3.210938 0.515625 -3.265625 C 0.460938 -3.328125 0.4375 -3.394531 0.4375 -3.46875 C 0.4375 -3.539062 0.460938 -3.601562 0.515625 -3.65625 C 0.566406 -3.71875 0.632812 -3.75 0.71875 -3.75 C 0.789062 -3.75 0.851562 -3.71875 0.90625 -3.65625 Z M 0.921875 0 L 0.5 0 L 0.5 -2.71875 L 0.921875 -2.71875 Z M 0.921875 0 "/></g></g></g><g fill="#ffffff" fill-opacity="1"><g transform="translate(138.502817, 121.797935)"><g><path d="M 3.125 -1.421875 L 3.125 -1.1875 L 0.734375 -1.1875 C 0.773438 -0.957031 0.890625 -0.769531 1.078125 -0.625 C 1.265625 -0.46875 1.472656 -0.390625 1.703125 -0.390625 C 1.859375 -0.390625 2.007812 -0.425781 2.15625 -0.5 C 2.289062 -0.570312 2.40625 -0.671875 2.5 -0.796875 L 3 -0.796875 C 2.882812 -0.535156 2.710938 -0.332031 2.484375 -0.1875 C 2.242188 -0.03125 2.003906 0.046875 1.765625 0.046875 C 1.523438 0.046875 1.320312 0.0078125 1.15625 -0.0625 C 0.976562 -0.132812 0.828125 -0.238281 0.703125 -0.375 C 0.421875 -0.644531 0.28125 -0.976562 0.28125 -1.375 C 0.28125 -1.769531 0.421875 -2.101562 0.703125 -2.375 C 0.972656 -2.65625 1.304688 -2.796875 1.703125 -2.796875 C 2.078125 -2.796875 2.410156 -2.660156 2.703125 -2.390625 C 2.984375 -2.117188 3.125 -1.796875 3.125 -1.421875 Z M 2.671875 -1.5625 C 2.617188 -1.789062 2.5 -1.984375 2.3125 -2.140625 C 2.132812 -2.285156 1.929688 -2.359375 1.703125 -2.359375 C 1.347656 -2.359375 1.066406 -2.203125 0.859375 -1.890625 C 0.796875 -1.785156 0.753906 -1.675781 0.734375 -1.5625 Z M 2.671875 -1.5625 "/></g></g></g><g fill="#ffffff" fill-opacity="1"><g transform="translate(141.872393, 121.797935)"><g><path d="M 0.859375 -0.390625 C 0.960938 -0.316406 1.101562 -0.28125 1.28125 -0.28125 C 1.675781 -0.28125 1.875 -0.425781 1.875 -0.71875 C 1.875 -0.894531 1.734375 -1.03125 1.453125 -1.125 C 1.328125 -1.164062 1.195312 -1.203125 1.0625 -1.234375 C 0.925781 -1.265625 0.796875 -1.304688 0.671875 -1.359375 C 0.535156 -1.421875 0.429688 -1.503906 0.359375 -1.609375 C 0.285156 -1.703125 0.25 -1.820312 0.25 -1.96875 C 0.25 -2.238281 0.34375 -2.441406 0.53125 -2.578125 C 0.726562 -2.710938 0.957031 -2.78125 1.21875 -2.78125 C 1.476562 -2.78125 1.695312 -2.726562 1.875 -2.625 C 2.050781 -2.519531 2.171875 -2.328125 2.234375 -2.046875 L 1.765625 -2.046875 C 1.710938 -2.203125 1.640625 -2.300781 1.546875 -2.34375 C 1.453125 -2.394531 1.335938 -2.421875 1.203125 -2.421875 C 1.066406 -2.421875 0.953125 -2.394531 0.859375 -2.34375 C 0.765625 -2.28125 0.71875 -2.1875 0.71875 -2.0625 C 0.71875 -1.9375 0.753906 -1.847656 0.828125 -1.796875 C 0.910156 -1.742188 1.007812 -1.695312 1.125 -1.65625 C 1.25 -1.613281 1.378906 -1.578125 1.515625 -1.546875 C 1.648438 -1.515625 1.78125 -1.472656 1.90625 -1.421875 C 2.1875 -1.285156 2.328125 -1.070312 2.328125 -0.78125 C 2.328125 -0.488281 2.222656 -0.269531 2.015625 -0.125 C 1.910156 -0.0625 1.796875 -0.0078125 1.671875 0.03125 C 1.546875 0.0625 1.40625 0.078125 1.25 0.078125 C 0.625 0.078125 0.265625 -0.203125 0.171875 -0.765625 L 0.625 -0.765625 C 0.664062 -0.585938 0.742188 -0.460938 0.859375 -0.390625 Z M 0.859375 -0.390625 "/></g></g></g><g fill="#ffffff" fill-opacity="1"><g transform="translate(144.357845, 121.797935)"><g><path d="M 0.828125 0.0625 C 0.734375 0.0625 0.648438 0.0234375 0.578125 -0.046875 C 0.503906 -0.109375 0.46875 -0.1875 0.46875 -0.28125 C 0.46875 -0.375 0.5 -0.457031 0.5625 -0.53125 C 0.632812 -0.601562 0.722656 -0.640625 0.828125 -0.640625 C 0.921875 -0.640625 1.003906 -0.601562 1.078125 -0.53125 C 1.148438 -0.46875 1.1875 -0.390625 1.1875 -0.296875 C 1.1875 -0.191406 1.148438 -0.109375 1.078125 -0.046875 C 1.003906 0.0234375 0.921875 0.0625 0.828125 0.0625 Z M 0.828125 0.0625 "/></g></g></g><g fill="#ffffff" fill-opacity="1"><g transform="translate(146.008632, 121.797935)"><g><path d="M 3 -1.75 L 2.53125 -1.75 C 2.457031 -1.914062 2.34375 -2.054688 2.1875 -2.171875 C 2.03125 -2.273438 1.875 -2.328125 1.71875 -2.328125 C 1.550781 -2.328125 1.410156 -2.300781 1.296875 -2.25 C 1.179688 -2.195312 1.082031 -2.128906 1 -2.046875 C 0.8125 -1.847656 0.71875 -1.617188 0.71875 -1.359375 C 0.71875 -1.097656 0.8125 -0.875 1 -0.6875 C 1.1875 -0.488281 1.410156 -0.390625 1.671875 -0.390625 C 1.847656 -0.390625 2.007812 -0.4375 2.15625 -0.53125 C 2.300781 -0.613281 2.414062 -0.734375 2.5 -0.890625 L 2.984375 -0.890625 C 2.828125 -0.453125 2.53125 -0.160156 2.09375 -0.015625 C 1.957031 0.0351562 1.804688 0.0625 1.640625 0.0625 C 1.460938 0.0625 1.289062 0.0195312 1.125 -0.0625 C 0.945312 -0.132812 0.800781 -0.234375 0.6875 -0.359375 C 0.414062 -0.640625 0.28125 -0.972656 0.28125 -1.359375 C 0.28125 -1.742188 0.414062 -2.078125 0.6875 -2.359375 C 0.957031 -2.640625 1.285156 -2.78125 1.671875 -2.78125 C 1.984375 -2.78125 2.265625 -2.679688 2.515625 -2.484375 C 2.753906 -2.296875 2.914062 -2.050781 3 -1.75 Z M 3 -1.75 "/></g></g></g><g fill="#ffffff" fill-opacity="1"><g transform="translate(149.229826, 121.797935)"><g><path d="M 2.6875 -1.375 C 2.6875 -1.644531 2.59375 -1.878906 2.40625 -2.078125 C 2.207031 -2.265625 1.972656 -2.359375 1.703125 -2.359375 C 1.429688 -2.359375 1.195312 -2.265625 1 -2.078125 C 0.8125 -1.878906 0.71875 -1.644531 0.71875 -1.375 C 0.71875 -1.101562 0.8125 -0.875 1 -0.6875 C 1.195312 -0.488281 1.429688 -0.390625 1.703125 -0.390625 C 1.972656 -0.390625 2.207031 -0.488281 2.40625 -0.6875 C 2.59375 -0.875 2.6875 -1.101562 2.6875 -1.375 Z M 3.125 -1.375 C 3.125 -0.976562 2.984375 -0.644531 2.703125 -0.375 C 2.421875 -0.09375 2.085938 0.046875 1.703125 0.046875 C 1.316406 0.046875 0.984375 -0.09375 0.703125 -0.375 C 0.421875 -0.644531 0.28125 -0.976562 0.28125 -1.375 C 0.28125 -1.769531 0.421875 -2.101562 0.703125 -2.375 C 0.972656 -2.65625 1.304688 -2.796875 1.703125 -2.796875 C 2.097656 -2.796875 2.429688 -2.65625 2.703125 -2.375 C 2.984375 -2.101562 3.125 -1.769531 3.125 -1.375 Z M 3.125 -1.375 "/></g></g></g><g fill="#ffffff" fill-opacity="1"><g transform="translate(152.630322, 121.797935)"><g><path d="M 3.921875 -0.015625 L 3.921875 -1.71875 C 3.921875 -2 3.832031 -2.195312 3.65625 -2.3125 C 3.59375 -2.34375 3.492188 -2.359375 3.359375 -2.359375 C 3.234375 -2.359375 3.113281 -2.320312 3 -2.25 C 2.894531 -2.175781 2.804688 -2.082031 2.734375 -1.96875 C 2.710938 -1.925781 2.691406 -1.875 2.671875 -1.8125 C 2.671875 -1.78125 2.671875 -1.75 2.671875 -1.71875 L 2.671875 -0.015625 L 2.234375 -0.015625 L 2.234375 -1.71875 C 2.234375 -2 2.144531 -2.195312 1.96875 -2.3125 C 1.90625 -2.34375 1.8125 -2.359375 1.6875 -2.359375 C 1.5625 -2.359375 1.441406 -2.320312 1.328125 -2.25 C 1.210938 -2.175781 1.125 -2.082031 1.0625 -1.96875 C 0.976562 -1.8125 0.921875 -1.625 0.890625 -1.40625 L 0.890625 -0.015625 L 0.46875 -0.015625 L 0.46875 -2.734375 L 0.890625 -2.734375 L 0.890625 -2.296875 C 0.972656 -2.441406 1.078125 -2.554688 1.203125 -2.640625 C 1.347656 -2.742188 1.515625 -2.796875 1.703125 -2.796875 C 1.890625 -2.796875 2.039062 -2.765625 2.15625 -2.703125 C 2.269531 -2.648438 2.367188 -2.570312 2.453125 -2.46875 C 2.492188 -2.40625 2.53125 -2.34375 2.5625 -2.28125 C 2.644531 -2.425781 2.753906 -2.546875 2.890625 -2.640625 C 3.023438 -2.742188 3.1875 -2.796875 3.375 -2.796875 C 3.5625 -2.796875 3.71875 -2.765625 3.84375 -2.703125 C 3.957031 -2.648438 4.050781 -2.570312 4.125 -2.46875 C 4.269531 -2.269531 4.34375 -2.019531 4.34375 -1.71875 L 4.34375 -0.015625 Z M 3.921875 -0.015625 "/></g></g></g><g clip-path="url(#8c6a186553)"><path fill="#ffffff" d="M 116.59375 56.515625 L 116.566406 56.542969 C 116.09375 57.015625 115.734375 57.566406 115.480469 58.1875 C 115.265625 58.710938 115.144531 59.257812 115.109375 59.820312 C 115.078125 60.386719 115.136719 60.941406 115.289062 61.488281 C 115.441406 62.035156 115.679688 62.539062 116 63.007812 C 116.324219 63.472656 116.710938 63.875 117.167969 64.210938 C 117.621094 64.550781 118.121094 64.804688 118.660156 64.972656 C 119.199219 65.144531 119.753906 65.222656 120.320312 65.210938 C 120.886719 65.195312 121.4375 65.089844 121.96875 64.894531 C 122.5 64.699219 122.984375 64.417969 123.421875 64.0625 L 123.453125 64.03125 L 123.46875 64.023438 C 123.515625 63.984375 123.570312 63.941406 123.617188 63.890625 C 123.648438 63.867188 123.6875 63.828125 123.726562 63.792969 L 123.800781 63.71875 C 123.808594 63.710938 123.8125 63.707031 123.816406 63.699219 C 124.28125 63.230469 124.640625 62.695312 124.894531 62.085938 C 125.160156 61.453125 125.292969 60.796875 125.292969 60.113281 C 125.292969 58.707031 124.71875 57.4375 123.800781 56.515625 C 123.457031 56.175781 123.074219 55.886719 122.648438 55.65625 C 122.226562 55.421875 121.777344 55.253906 121.304688 55.148438 C 120.832031 55.042969 120.355469 55.003906 119.871094 55.035156 C 119.386719 55.066406 118.917969 55.164062 118.464844 55.324219 C 117.902344 55.527344 117.398438 55.820312 116.941406 56.199219 L 116.925781 56.210938 C 116.882812 56.242188 116.839844 56.277344 116.796875 56.316406 C 116.761719 56.351562 116.71875 56.394531 116.667969 56.441406 Z M 113.789062 53.332031 C 113.363281 53.734375 112.976562 54.175781 112.632812 54.652344 C 112.289062 55.128906 111.992188 55.632812 111.742188 56.164062 C 111.496094 56.695312 111.296875 57.246094 111.152344 57.816406 C 111.007812 58.386719 110.917969 58.964844 110.882812 59.550781 C 110.847656 60.136719 110.867188 60.71875 110.941406 61.304688 C 111.015625 61.886719 111.144531 62.457031 111.328125 63.015625 C 111.507812 63.574219 111.742188 64.109375 112.027344 64.625 C 112.3125 65.136719 112.640625 65.621094 113.015625 66.074219 C 114.335938 67.664062 116.175781 68.808594 118.269531 69.246094 L 119.363281 68.15625 C 117.464844 67.960938 115.761719 67.105469 114.480469 65.832031 C 113.019531 64.367188 112.113281 62.347656 112.113281 60.113281 C 112.117188 59.042969 112.320312 58.011719 112.730469 57.023438 C 113.140625 56.035156 113.726562 55.160156 114.480469 54.402344 L 119.695312 49.1875 C 119.871094 49.011719 120.144531 49.011719 120.3125 49.1875 C 120.398438 49.269531 120.441406 49.371094 120.441406 49.492188 C 120.441406 49.609375 120.398438 49.710938 120.3125 49.796875 L 120.273438 49.84375 L 120.277344 49.84375 L 119.394531 50.71875 L 115.671875 54.445312 C 115.65625 54.460938 115.640625 54.472656 115.625 54.484375 L 115.097656 55.011719 C 114.421875 55.691406 113.902344 56.472656 113.53125 57.351562 C 113.164062 58.238281 112.980469 59.15625 112.984375 60.113281 C 112.984375 62.105469 113.789062 63.910156 115.097656 65.214844 C 115.773438 65.890625 116.550781 66.410156 117.433594 66.777344 C 118.3125 67.140625 119.230469 67.324219 120.1875 67.328125 L 121.605469 65.910156 C 121.140625 66.023438 120.671875 66.078125 120.195312 66.078125 C 118.546875 66.078125 117.058594 65.410156 115.976562 64.332031 C 114.902344 63.253906 114.230469 61.761719 114.230469 60.113281 C 114.230469 59.328125 114.378906 58.574219 114.675781 57.851562 C 114.972656 57.125 115.398438 56.484375 115.949219 55.929688 L 115.949219 55.925781 C 115.960938 55.917969 115.96875 55.910156 115.976562 55.898438 L 122.691406 49.1875 C 122.773438 49.101562 122.878906 49.058594 123 49.058594 C 123.117188 49.058594 123.222656 49.101562 123.304688 49.1875 C 123.390625 49.269531 123.433594 49.375 123.433594 49.492188 C 123.433594 49.613281 123.390625 49.71875 123.304688 49.800781 L 122.84375 50.265625 C 123.71875 50.5 124.546875 50.847656 125.332031 51.300781 C 126.117188 51.757812 126.828125 52.308594 127.464844 52.957031 C 128.101562 53.601562 128.640625 54.320312 129.085938 55.109375 C 129.53125 55.902344 129.863281 56.734375 130.085938 57.613281 C 130.308594 58.492188 130.414062 59.386719 130.394531 60.292969 C 130.378906 61.199219 130.246094 62.089844 129.992188 62.960938 C 129.738281 63.832031 129.375 64.652344 128.902344 65.425781 C 128.429688 66.203125 127.863281 66.898438 127.203125 67.523438 C 127.199219 67.527344 127.195312 67.53125 127.191406 67.539062 L 123.679688 71.046875 C 123.59375 71.132812 123.492188 71.175781 123.371094 71.171875 C 123.253906 71.171875 123.152344 71.128906 123.066406 71.046875 C 122.980469 70.960938 122.941406 70.859375 122.941406 70.738281 C 122.941406 70.617188 122.984375 70.515625 123.070312 70.429688 L 126.578125 66.921875 C 126.585938 66.914062 126.589844 66.90625 126.597656 66.902344 C 127.535156 66.023438 128.253906 64.996094 128.765625 63.816406 C 129.253906 62.6875 129.523438 61.429688 129.523438 60.113281 C 129.523438 59.582031 129.480469 59.054688 129.390625 58.53125 C 129.296875 58.007812 129.164062 57.496094 128.988281 56.996094 C 128.808594 56.496094 128.589844 56.011719 128.332031 55.550781 C 128.070312 55.085938 127.773438 54.648438 127.441406 54.234375 C 127.105469 53.824219 126.738281 53.441406 126.339844 53.09375 C 125.941406 52.742188 125.511719 52.429688 125.058594 52.152344 C 124.605469 51.875 124.132812 51.636719 123.640625 51.441406 C 123.144531 51.246094 122.640625 51.09375 122.121094 50.984375 L 121.03125 52.078125 C 121.789062 52.15625 122.523438 52.339844 123.230469 52.625 C 123.9375 52.914062 124.59375 53.292969 125.191406 53.765625 C 125.792969 54.238281 126.316406 54.785156 126.761719 55.402344 C 127.207031 56.023438 127.558594 56.695312 127.8125 57.414062 C 128.066406 58.132812 128.21875 58.875 128.261719 59.636719 C 128.308594 60.398438 128.246094 61.152344 128.078125 61.898438 C 127.910156 62.644531 127.640625 63.351562 127.273438 64.019531 C 126.902344 64.6875 126.449219 65.292969 125.910156 65.832031 L 120.691406 71.046875 C 120.609375 71.136719 120.503906 71.179688 120.382812 71.179688 C 120.261719 71.179688 120.15625 71.136719 120.070312 71.050781 C 119.984375 70.964844 119.941406 70.863281 119.945312 70.742188 C 119.945312 70.621094 119.988281 70.515625 120.074219 70.433594 L 120.125 70.390625 L 120.117188 70.390625 L 120.992188 69.507812 L 124.601562 65.90625 C 124.628906 65.835938 124.671875 65.773438 124.726562 65.726562 C 124.824219 65.652344 124.917969 65.566406 125.019531 65.480469 C 125.109375 65.398438 125.199219 65.316406 125.292969 65.21875 L 125.296875 65.214844 C 125.972656 64.539062 126.496094 63.757812 126.863281 62.875 C 127.214844 62.027344 127.40625 61.09375 127.40625 60.113281 C 127.40625 59.160156 127.226562 58.238281 126.859375 57.355469 C 126.496094 56.472656 125.972656 55.695312 125.296875 55.019531 C 123.992188 53.710938 122.195312 52.90625 120.203125 52.90625 L 118.785156 54.324219 C 119.796875 54.078125 120.800781 54.09375 121.804688 54.375 C 122.804688 54.65625 123.675781 55.164062 124.414062 55.898438 C 125.492188 56.980469 126.164062 58.46875 126.164062 60.113281 C 126.160156 60.898438 126.011719 61.652344 125.714844 62.378906 C 125.414062 63.101562 124.992188 63.746094 124.441406 64.304688 C 124.429688 64.3125 124.425781 64.324219 124.414062 64.335938 L 117.699219 71.046875 C 117.613281 71.132812 117.511719 71.171875 117.390625 71.171875 C 117.273438 71.171875 117.171875 71.128906 117.085938 71.042969 C 117.003906 70.960938 116.960938 70.859375 116.960938 70.738281 C 116.957031 70.621094 117 70.515625 117.082031 70.429688 L 117.546875 69.96875 C 115.488281 69.414062 113.679688 68.230469 112.351562 66.632812 C 110.882812 64.863281 109.996094 62.589844 109.996094 60.113281 C 109.996094 58.714844 110.273438 57.371094 110.828125 56.082031 C 111.382812 54.796875 112.167969 53.671875 113.183594 52.710938 L 116.710938 49.183594 C 116.792969 49.101562 116.898438 49.058594 117.015625 49.058594 C 117.136719 49.058594 117.242188 49.101562 117.324219 49.1875 C 117.410156 49.269531 117.453125 49.375 117.453125 49.492188 C 117.453125 49.613281 117.410156 49.71875 117.324219 49.800781 L 113.816406 53.3125 C 113.804688 53.316406 113.796875 53.324219 113.789062 53.332031 Z M 113.789062 53.332031 " fill-opacity="1" fill-rule="nonzero"/></g><g fill="#ffffff" fill-opacity="1"><g transform="translate(97.695404, 85.346605)"><g><path d="M 0.5 0 L 0.5 -11.140625 L 3.890625 -11.140625 L 4.828125 -4.34375 L 5.765625 -11.140625 L 9.1875 -11.140625 L 9.1875 0 L 7.140625 0 L 7.140625 -8.03125 L 5.859375 0 L 3.859375 0 L 2.5 -8.03125 L 2.5 0 Z M 0.5 0 "/></g></g></g><g fill="#ffffff" fill-opacity="1"><g transform="translate(107.777683, 85.346605)"><g><path d="M 0.5 0 L 0.5 -11.140625 L 4.953125 -11.140625 L 4.953125 -8.984375 L 2.765625 -8.984375 L 2.765625 -6.828125 L 4.859375 -6.828125 L 4.859375 -4.71875 L 2.765625 -4.71875 L 2.765625 -2.171875 L 5.09375 -2.171875 L 5.09375 0 Z M 0.5 0 "/></g></g></g><g fill="#ffffff" fill-opacity="1"><g transform="translate(113.531674, 85.346605)"><g><path d="M 1.453125 0 L 1.453125 -9 L 0.125 -9 L 0.125 -11.140625 L 5 -11.140625 L 5 -9 L 3.6875 -9 L 3.6875 0 Z M 1.453125 0 "/></g></g></g><g fill="#ffffff" fill-opacity="1"><g transform="translate(119.078323, 85.346605)"><g><path d="M 0.1875 0 L 1.265625 -11.140625 L 5.046875 -11.140625 L 6.109375 0 L 4 0 L 3.84375 -1.796875 L 2.484375 -1.796875 L 2.359375 0 Z M 2.65625 -3.578125 L 3.671875 -3.578125 L 3.171875 -9.25 L 3.078125 -9.25 Z M 2.65625 -3.578125 "/></g></g></g><g fill="#ffffff" fill-opacity="1"><g transform="translate(125.778313, 85.346605)"><g><path d="M 1.515625 0 L 0.140625 -11.15625 L 2.265625 -11.15625 L 3.09375 -3.5625 L 3.8125 -11.15625 L 5.9375 -11.15625 L 4.5625 0 Z M 1.515625 0 "/></g></g></g><g fill="#ffffff" fill-opacity="1"><g transform="translate(132.27096, 85.346605)"><g><path d="M 0.5 0 L 0.5 -11.140625 L 4.953125 -11.140625 L 4.953125 -8.984375 L 2.765625 -8.984375 L 2.765625 -6.828125 L 4.859375 -6.828125 L 4.859375 -4.71875 L 2.765625 -4.71875 L 2.765625 -2.171875 L 5.09375 -2.171875 L 5.09375 0 Z M 0.5 0 "/></g></g></g><g fill="#ffffff" fill-opacity="1"><g transform="translate(138.024951, 85.346605)"><g><path d="M 0.5 0 L 0.5 -11.140625 L 2.71875 -11.140625 L 2.71875 -1.890625 L 5.015625 -1.890625 L 5.015625 0 Z M 0.5 0 "/></g></g></g><g fill="#ffffff" fill-opacity="1"><g transform="translate(97.914107, 91.584022)"><g><path d="M 0.890625 0 L 0.359375 0 L 0.359375 -2.703125 L 0.890625 -2.703125 Z M 0.890625 0 "/></g></g></g><g fill="#ffffff" fill-opacity="1"><g transform="translate(101.584258, 91.584022)"><g><path d="M 0.875 0 L 0.359375 0 L 0.359375 -2.703125 L 0.96875 -2.703125 L 2.046875 -0.96875 L 2.109375 -0.96875 L 2.109375 -2.703125 L 2.625 -2.703125 L 2.625 0 L 2.0625 0 L 0.921875 -1.859375 L 0.875 -1.859375 Z M 0.875 0 "/></g></g></g><g fill="#ffffff" fill-opacity="1"><g transform="translate(106.984951, 91.584022)"><g><path d="M 1.328125 -2.703125 C 1.765625 -2.703125 2.097656 -2.585938 2.328125 -2.359375 C 2.566406 -2.140625 2.6875 -1.804688 2.6875 -1.359375 C 2.6875 -0.910156 2.566406 -0.570312 2.328125 -0.34375 C 2.097656 -0.113281 1.765625 0 1.328125 0 L 0.359375 0 L 0.359375 -2.703125 Z M 1.296875 -0.453125 C 1.578125 -0.453125 1.785156 -0.519531 1.921875 -0.65625 C 2.054688 -0.800781 2.125 -1.035156 2.125 -1.359375 C 2.125 -1.671875 2.054688 -1.898438 1.921875 -2.046875 C 1.785156 -2.191406 1.578125 -2.265625 1.296875 -2.265625 L 0.890625 -2.265625 L 0.890625 -0.453125 Z M 1.296875 -0.453125 "/></g></g></g><g fill="#ffffff" fill-opacity="1"><g transform="translate(112.311452, 91.584022)"><g><path d="M 1.4375 0.03125 C 1.0625 0.03125 0.78125 -0.0546875 0.59375 -0.234375 C 0.414062 -0.410156 0.328125 -0.671875 0.328125 -1.015625 L 0.328125 -2.703125 L 0.859375 -2.703125 L 0.859375 -1.015625 C 0.859375 -0.816406 0.90625 -0.664062 1 -0.5625 C 1.09375 -0.46875 1.238281 -0.421875 1.4375 -0.421875 C 1.820312 -0.421875 2.015625 -0.617188 2.015625 -1.015625 L 2.015625 -2.703125 L 2.53125 -2.703125 L 2.53125 -1.015625 C 2.53125 -0.671875 2.441406 -0.410156 2.265625 -0.234375 C 2.085938 -0.0546875 1.8125 0.03125 1.4375 0.03125 Z M 1.4375 0.03125 "/></g></g></g><g fill="#ffffff" fill-opacity="1"><g transform="translate(117.61384, 91.584022)"><g><path d="M 1.203125 0.03125 C 1.015625 0.03125 0.847656 0.0078125 0.703125 -0.03125 C 0.554688 -0.0703125 0.429688 -0.128906 0.328125 -0.203125 C 0.234375 -0.285156 0.160156 -0.375 0.109375 -0.46875 L 0.40625 -0.828125 L 0.453125 -0.828125 C 0.535156 -0.703125 0.640625 -0.601562 0.765625 -0.53125 C 0.890625 -0.457031 1.035156 -0.421875 1.203125 -0.421875 C 1.347656 -0.421875 1.457031 -0.453125 1.53125 -0.515625 C 1.601562 -0.578125 1.640625 -0.660156 1.640625 -0.765625 C 1.640625 -0.828125 1.625 -0.878906 1.59375 -0.921875 C 1.570312 -0.960938 1.535156 -1 1.484375 -1.03125 C 1.429688 -1.0625 1.359375 -1.09375 1.265625 -1.125 L 0.90625 -1.203125 C 0.664062 -1.253906 0.484375 -1.34375 0.359375 -1.46875 C 0.242188 -1.601562 0.1875 -1.773438 0.1875 -1.984375 C 0.1875 -2.128906 0.222656 -2.257812 0.296875 -2.375 C 0.378906 -2.5 0.492188 -2.59375 0.640625 -2.65625 C 0.785156 -2.71875 0.960938 -2.75 1.171875 -2.75 C 1.378906 -2.75 1.554688 -2.71875 1.703125 -2.65625 C 1.847656 -2.601562 1.972656 -2.519531 2.078125 -2.40625 L 1.8125 -2.046875 L 1.765625 -2.046875 C 1.691406 -2.128906 1.601562 -2.191406 1.5 -2.234375 C 1.40625 -2.273438 1.296875 -2.296875 1.171875 -2.296875 C 1.023438 -2.296875 0.910156 -2.269531 0.828125 -2.21875 C 0.753906 -2.164062 0.71875 -2.09375 0.71875 -2 C 0.71875 -1.914062 0.742188 -1.847656 0.796875 -1.796875 C 0.847656 -1.742188 0.941406 -1.703125 1.078125 -1.671875 L 1.4375 -1.609375 C 1.695312 -1.546875 1.882812 -1.445312 2 -1.3125 C 2.125 -1.1875 2.1875 -1.015625 2.1875 -0.796875 C 2.1875 -0.628906 2.148438 -0.484375 2.078125 -0.359375 C 2.003906 -0.234375 1.890625 -0.132812 1.734375 -0.0625 C 1.585938 0 1.410156 0.03125 1.203125 0.03125 Z M 1.203125 0.03125 "/></g></g></g><g fill="#ffffff" fill-opacity="1"><g transform="translate(122.370913, 91.584022)"><g><path d="M 2.171875 -2.703125 L 2.171875 -2.265625 L 1.390625 -2.265625 L 1.390625 0 L 0.859375 0 L 0.859375 -2.265625 L 0.078125 -2.265625 L 0.078125 -2.703125 Z M 2.171875 -2.703125 "/></g></g></g><g fill="#ffffff" fill-opacity="1"><g transform="translate(127.046375, 91.584022)"><g><path d="M 0.359375 0 L 0.359375 -2.703125 L 1.4375 -2.703125 C 1.71875 -2.703125 1.929688 -2.640625 2.078125 -2.515625 C 2.222656 -2.390625 2.296875 -2.210938 2.296875 -1.984375 C 2.296875 -1.816406 2.253906 -1.679688 2.171875 -1.578125 C 2.085938 -1.472656 1.960938 -1.394531 1.796875 -1.34375 L 1.796875 -1.296875 C 1.878906 -1.253906 1.945312 -1.195312 2 -1.125 C 2.050781 -1.050781 2.097656 -0.945312 2.140625 -0.8125 L 2.421875 0 L 1.859375 0 L 1.609375 -0.8125 C 1.578125 -0.894531 1.539062 -0.957031 1.5 -1 C 1.46875 -1.039062 1.425781 -1.070312 1.375 -1.09375 C 1.320312 -1.113281 1.253906 -1.125 1.171875 -1.125 L 0.890625 -1.125 L 0.890625 0 Z M 1.375 -1.546875 C 1.632812 -1.546875 1.765625 -1.671875 1.765625 -1.921875 C 1.765625 -2.160156 1.632812 -2.28125 1.375 -2.28125 L 0.890625 -2.28125 L 0.890625 -1.546875 Z M 1.375 -1.546875 "/></g></g></g><g fill="#ffffff" fill-opacity="1"><g transform="translate(132.009333, 91.584022)"><g><path d="M 0.890625 0 L 0.359375 0 L 0.359375 -2.703125 L 0.890625 -2.703125 Z M 0.890625 0 "/></g></g></g><g fill="#ffffff" fill-opacity="1"><g transform="translate(135.679485, 91.584022)"><g><path d="M 0.890625 -1.1875 L 0.890625 -0.453125 L 2.1875 -0.453125 L 2.1875 0 L 0.359375 0 L 0.359375 -2.703125 L 2.15625 -2.703125 L 2.15625 -2.265625 L 0.890625 -2.265625 L 0.890625 -1.625 L 2 -1.625 L 2 -1.1875 Z M 0.890625 -1.1875 "/></g></g></g><g fill="#ffffff" fill-opacity="1"><g transform="translate(140.438414, 91.584022)"><g><path d="M 1.203125 0.03125 C 1.015625 0.03125 0.847656 0.0078125 0.703125 -0.03125 C 0.554688 -0.0703125 0.429688 -0.128906 0.328125 -0.203125 C 0.234375 -0.285156 0.160156 -0.375 0.109375 -0.46875 L 0.40625 -0.828125 L 0.453125 -0.828125 C 0.535156 -0.703125 0.640625 -0.601562 0.765625 -0.53125 C 0.890625 -0.457031 1.035156 -0.421875 1.203125 -0.421875 C 1.347656 -0.421875 1.457031 -0.453125 1.53125 -0.515625 C 1.601562 -0.578125 1.640625 -0.660156 1.640625 -0.765625 C 1.640625 -0.828125 1.625 -0.878906 1.59375 -0.921875 C 1.570312 -0.960938 1.535156 -1 1.484375 -1.03125 C 1.429688 -1.0625 1.359375 -1.09375 1.265625 -1.125 L 0.90625 -1.203125 C 0.664062 -1.253906 0.484375 -1.34375 0.359375 -1.46875 C 0.242188 -1.601562 0.1875 -1.773438 0.1875 -1.984375 C 0.1875 -2.128906 0.222656 -2.257812 0.296875 -2.375 C 0.378906 -2.5 0.492188 -2.59375 0.640625 -2.65625 C 0.785156 -2.71875 0.960938 -2.75 1.171875 -2.75 C 1.378906 -2.75 1.554688 -2.71875 1.703125 -2.65625 C 1.847656 -2.601562 1.972656 -2.519531 2.078125 -2.40625 L 1.8125 -2.046875 L 1.765625 -2.046875 C 1.691406 -2.128906 1.601562 -2.191406 1.5 -2.234375 C 1.40625 -2.273438 1.296875 -2.296875 1.171875 -2.296875 C 1.023438 -2.296875 0.910156 -2.269531 0.828125 -2.21875 C 0.753906 -2.164062 0.71875 -2.09375 0.71875 -2 C 0.71875 -1.914062 0.742188 -1.847656 0.796875 -1.796875 C 0.847656 -1.742188 0.941406 -1.703125 1.078125 -1.671875 L 1.4375 -1.609375 C 1.695312 -1.546875 1.882812 -1.445312 2 -1.3125 C 2.125 -1.1875 2.1875 -1.015625 2.1875 -0.796875 C 2.1875 -0.628906 2.148438 -0.484375 2.078125 -0.359375 C 2.003906 -0.234375 1.890625 -0.132812 1.734375 -0.0625 C 1.585938 0 1.410156 0.03125 1.203125 0.03125 Z M 1.203125 0.03125 "/></g></g></g></svg>