<svg xmlns="http://www.w3.org/2000/svg" xmlns:xlink="http://www.w3.org/1999/xlink" width="321" zoomAndPan="magnify" viewBox="0 0 240.75 141.750002" height="188" preserveAspectRatio="xMidYMid meet" version="1.0"><defs><g/><clipPath id="a3a5621787"><path d="M 0.0859375 0 L 240.414062 0 L 240.414062 141.5 L 0.0859375 141.5 Z M 0.0859375 0 " clip-rule="nonzero"/></clipPath><clipPath id="d759c2ff42"><path d="M 0.0859375 0 L 32 0 L 32 32 L 0.0859375 32 Z M 0.0859375 0 " clip-rule="nonzero"/></clipPath><clipPath id="26e4dbf8c4"><path d="M -102.285156 -19.265625 L -19.34375 -102.207031 L 52.570312 -30.289062 L -30.371094 52.648438 Z M -102.285156 -19.265625 " clip-rule="nonzero"/></clipPath><clipPath id="8a4f19c85d"><path d="M -40.078125 -81.46875 L -81.550781 -40 L -66.367188 16.652344 L -9.714844 31.832031 L 31.753906 -9.636719 L 16.574219 -66.289062 Z M -40.078125 -81.46875 " clip-rule="nonzero"/></clipPath><clipPath id="5b217295c4"><path d="M 0.0859375 0 L 75 0 L 75 17 L 0.0859375 17 Z M 0.0859375 0 " clip-rule="nonzero"/></clipPath><clipPath id="b6755b0b56"><path d="M -59.355469 -34.820312 L 23.582031 -117.761719 L 95.5 -45.84375 L 12.558594 37.09375 Z M -59.355469 -34.820312 " clip-rule="nonzero"/></clipPath><clipPath id="8013ca9091"><path d="M 2.847656 -97.023438 L -38.621094 -55.554688 L -23.441406 1.097656 L 33.210938 16.277344 L 74.683594 -25.191406 L 59.5 -81.84375 Z M 2.847656 -97.023438 " clip-rule="nonzero"/></clipPath><clipPath id="8cb54cb6ac"><path d="M 214 107 L 240.414062 107 L 240.414062 141.5 L 214 141.5 Z M 214 107 " clip-rule="nonzero"/></clipPath><clipPath id="3a00a03cb0"><path d="M 348.6875 158.347656 L 265.75 241.285156 L 193.832031 169.371094 L 276.773438 86.429688 Z M 348.6875 158.347656 " clip-rule="nonzero"/></clipPath><clipPath id="e126a2c4d4"><path d="M 286.484375 220.550781 L 327.953125 179.082031 L 312.773438 122.429688 L 256.121094 107.246094 L 214.648438 148.71875 L 229.832031 205.371094 Z M 286.484375 220.550781 " clip-rule="nonzero"/></clipPath><clipPath id="c1b1b90cfb"><path d="M 164 127 L 240.414062 127 L 240.414062 141.5 L 164 141.5 Z M 164 127 " clip-rule="nonzero"/></clipPath><clipPath id="71c28d2846"><path d="M 298.757812 178.214844 L 215.820312 261.152344 L 143.90625 189.238281 L 226.84375 106.296875 Z M 298.757812 178.214844 " clip-rule="nonzero"/></clipPath><clipPath id="dc5c93a191"><path d="M 236.554688 240.417969 L 278.023438 198.949219 L 262.84375 142.296875 L 206.191406 127.113281 L 164.722656 168.585938 L 179.902344 225.234375 Z M 236.554688 240.417969 " clip-rule="nonzero"/></clipPath><clipPath id="4d74100ebe"><path d="M 205.625 14.148438 L 226.460938 14.148438 L 226.460938 35 L 205.625 35 Z M 205.625 14.148438 " clip-rule="nonzero"/></clipPath><clipPath id="25bef88161"><path d="M 14.234375 106.25 L 35.070312 106.25 L 35.070312 127.210938 L 14.234375 127.210938 Z M 14.234375 106.25 " clip-rule="nonzero"/></clipPath><clipPath id="3c3af89575"><path d="M 109.871094 30.578125 L 130.835938 30.578125 L 130.835938 53 L 109.871094 53 Z M 109.871094 30.578125 " clip-rule="nonzero"/></clipPath></defs><g clip-path="url(#a3a5621787)"><path fill="#ffffff" d="M 0.0859375 0 L 240.414062 0 L 240.414062 141.5 L 0.0859375 141.5 Z M 0.0859375 0 " fill-opacity="1" fill-rule="nonzero"/><path fill="#004aad" d="M 0.0859375 0 L 240.414062 0 L 240.414062 141.5 L 0.0859375 141.5 Z M 0.0859375 0 " fill-opacity="1" fill-rule="nonzero"/></g><g clip-path="url(#d759c2ff42)"><g clip-path="url(#26e4dbf8c4)"><g clip-path="url(#8a4f19c85d)"><path fill="#ffffff" d="M -102.285156 -19.265625 L -19.34375 -102.207031 L 52.570312 -30.289062 L -30.371094 52.648438 Z M -102.285156 -19.265625 " fill-opacity="1" fill-rule="nonzero"/></g></g></g><g clip-path="url(#5b217295c4)"><g clip-path="url(#b6755b0b56)"><g clip-path="url(#8013ca9091)"><path fill="#529cff" d="M -59.355469 -34.820312 L 23.582031 -117.761719 L 95.5 -45.84375 L 12.558594 37.09375 Z M -59.355469 -34.820312 " fill-opacity="1" fill-rule="nonzero"/></g></g></g><g clip-path="url(#8cb54cb6ac)"><g clip-path="url(#3a00a03cb0)"><g clip-path="url(#e126a2c4d4)"><path fill="#ffffff" d="M 348.6875 158.347656 L 265.75 241.285156 L 193.832031 169.371094 L 276.773438 86.429688 Z M 348.6875 158.347656 " fill-opacity="1" fill-rule="nonzero"/></g></g></g><g clip-path="url(#c1b1b90cfb)"><g clip-path="url(#71c28d2846)"><g clip-path="url(#dc5c93a191)"><path fill="#529cff" d="M 298.757812 178.214844 L 215.820312 261.152344 L 143.90625 189.238281 L 226.84375 106.296875 Z M 298.757812 178.214844 " fill-opacity="1" fill-rule="nonzero"/></g></g></g><g clip-path="url(#4d74100ebe)"><path fill="#ffffff" d="M 205.628906 14.144531 L 226.460938 14.144531 L 226.460938 34.980469 L 224.851562 34.980469 L 224.851562 15.753906 L 205.628906 15.753906 Z M 205.628906 14.144531 " fill-opacity="1" fill-rule="nonzero"/></g><g clip-path="url(#25bef88161)"><path fill="#ffffff" d="M 35.066406 127.214844 L 14.234375 127.214844 L 14.234375 106.382812 L 15.839844 106.382812 L 15.839844 125.605469 L 35.066406 125.605469 Z M 35.066406 127.214844 " fill-opacity="1" fill-rule="nonzero"/></g><g fill="#ffffff" fill-opacity="1"><g transform="translate(59.484221, 107.428396)"><g><path d="M 5.140625 0.5625 L 3.6875 -3.046875 L 2.25 0.5625 L 0.109375 -4.46875 L 0.890625 -4.46875 L 2.234375 -1.03125 L 3.6875 -4.703125 L 5.125 -1.03125 L 6.46875 -4.46875 L 7.265625 -4.46875 Z M 5.140625 0.5625 "/></g></g></g><g fill="#ffffff" fill-opacity="1"><g transform="translate(66.844188, 107.428396)"><g><path d="M 5.140625 0.5625 L 3.6875 -3.046875 L 2.25 0.5625 L 0.109375 -4.46875 L 0.890625 -4.46875 L 2.234375 -1.03125 L 3.6875 -4.703125 L 5.125 -1.03125 L 6.46875 -4.46875 L 7.265625 -4.46875 Z M 5.140625 0.5625 "/></g></g></g><g fill="#ffffff" fill-opacity="1"><g transform="translate(74.204155, 107.428396)"><g><path d="M 5.140625 0.5625 L 3.6875 -3.046875 L 2.25 0.5625 L 0.109375 -4.46875 L 0.890625 -4.46875 L 2.234375 -1.03125 L 3.6875 -4.703125 L 5.125 -1.03125 L 6.46875 -4.46875 L 7.265625 -4.46875 Z M 5.140625 0.5625 "/></g></g></g><g fill="#ffffff" fill-opacity="1"><g transform="translate(81.564122, 107.428396)"><g><path d="M 1.359375 0.109375 C 1.203125 0.109375 1.066406 0.046875 0.953125 -0.078125 C 0.828125 -0.179688 0.765625 -0.3125 0.765625 -0.46875 C 0.765625 -0.625 0.820312 -0.757812 0.9375 -0.875 C 1.050781 -0.988281 1.191406 -1.046875 1.359375 -1.046875 C 1.515625 -1.046875 1.65625 -0.992188 1.78125 -0.890625 C 1.894531 -0.773438 1.953125 -0.640625 1.953125 -0.484375 C 1.953125 -0.316406 1.890625 -0.179688 1.765625 -0.078125 C 1.648438 0.046875 1.515625 0.109375 1.359375 0.109375 Z M 1.359375 0.109375 "/></g></g></g><g fill="#ffffff" fill-opacity="1"><g transform="translate(84.278359, 107.428396)"><g><path d="M 6.4375 -0.015625 L 6.4375 -2.8125 C 6.4375 -3.28125 6.289062 -3.609375 6 -3.796875 C 5.894531 -3.859375 5.738281 -3.890625 5.53125 -3.890625 C 5.320312 -3.890625 5.125 -3.828125 4.9375 -3.703125 C 4.757812 -3.578125 4.613281 -3.421875 4.5 -3.234375 C 4.457031 -3.160156 4.421875 -3.078125 4.390625 -2.984375 C 4.390625 -2.929688 4.390625 -2.875 4.390625 -2.8125 L 4.390625 -0.015625 L 3.6875 -0.015625 L 3.6875 -2.8125 C 3.6875 -3.28125 3.539062 -3.609375 3.25 -3.796875 C 3.144531 -3.859375 2.988281 -3.890625 2.78125 -3.890625 C 2.570312 -3.890625 2.375 -3.828125 2.1875 -3.703125 C 2 -3.578125 1.851562 -3.421875 1.75 -3.234375 C 1.601562 -2.984375 1.507812 -2.675781 1.46875 -2.3125 L 1.46875 -0.015625 L 0.765625 -0.015625 L 0.765625 -4.5 L 1.46875 -4.5 L 1.46875 -3.78125 C 1.601562 -4.007812 1.773438 -4.195312 1.984375 -4.34375 C 2.210938 -4.507812 2.484375 -4.59375 2.796875 -4.59375 C 3.109375 -4.59375 3.359375 -4.546875 3.546875 -4.453125 C 3.734375 -4.347656 3.894531 -4.21875 4.03125 -4.0625 C 4.09375 -3.96875 4.15625 -3.863281 4.21875 -3.75 C 4.351562 -3.988281 4.523438 -4.1875 4.734375 -4.34375 C 4.972656 -4.507812 5.242188 -4.59375 5.546875 -4.59375 C 5.859375 -4.59375 6.113281 -4.546875 6.3125 -4.453125 C 6.5 -4.347656 6.65625 -4.21875 6.78125 -4.0625 C 7.03125 -3.738281 7.15625 -3.320312 7.15625 -2.8125 L 7.15625 -0.015625 Z M 6.4375 -0.015625 "/></g></g></g><g fill="#ffffff" fill-opacity="1"><g transform="translate(92.034794, 107.428396)"><g><path d="M 5.140625 -2.34375 L 5.140625 -1.96875 L 1.203125 -1.96875 C 1.265625 -1.582031 1.453125 -1.265625 1.765625 -1.015625 C 2.078125 -0.765625 2.421875 -0.640625 2.796875 -0.640625 C 3.054688 -0.640625 3.304688 -0.703125 3.546875 -0.828125 C 3.773438 -0.941406 3.96875 -1.101562 4.125 -1.3125 L 4.9375 -1.3125 C 4.75 -0.882812 4.460938 -0.550781 4.078125 -0.3125 C 3.691406 -0.0507812 3.300781 0.078125 2.90625 0.078125 C 2.507812 0.078125 2.171875 0.015625 1.890625 -0.109375 C 1.609375 -0.234375 1.363281 -0.398438 1.15625 -0.609375 C 0.6875 -1.054688 0.453125 -1.609375 0.453125 -2.265625 C 0.453125 -2.898438 0.6875 -3.453125 1.15625 -3.921875 C 1.601562 -4.367188 2.148438 -4.59375 2.796875 -4.59375 C 3.421875 -4.59375 3.96875 -4.375 4.4375 -3.9375 C 4.90625 -3.488281 5.140625 -2.957031 5.140625 -2.34375 Z M 4.390625 -2.578125 C 4.304688 -2.953125 4.113281 -3.265625 3.8125 -3.515625 C 3.507812 -3.765625 3.171875 -3.890625 2.796875 -3.890625 C 2.210938 -3.890625 1.753906 -3.628906 1.421875 -3.109375 C 1.316406 -2.941406 1.242188 -2.765625 1.203125 -2.578125 Z M 4.390625 -2.578125 "/></g></g></g><g fill="#ffffff" fill-opacity="1"><g transform="translate(97.575098, 107.428396)"><g><path d="M 0.203125 -3.8125 L 0.203125 -4.46875 L 1.328125 -4.46875 L 1.328125 -6.21875 L 2.03125 -6.21875 L 2.03125 -4.46875 L 3.140625 -4.46875 L 3.140625 -3.8125 L 2.03125 -3.8125 L 2.03125 0 L 1.328125 0 L 1.328125 -3.8125 Z M 0.203125 -3.8125 "/></g></g></g><g fill="#ffffff" fill-opacity="1"><g transform="translate(100.919618, 107.428396)"><g><path d="M 4.328125 -2.234375 C 4.328125 -2.671875 4.175781 -3.050781 3.875 -3.375 C 3.570312 -3.695312 3.195312 -3.859375 2.75 -3.859375 C 2.300781 -3.859375 1.925781 -3.695312 1.625 -3.375 C 1.320312 -3.050781 1.171875 -2.671875 1.171875 -2.234375 C 1.171875 -1.804688 1.320312 -1.425781 1.625 -1.09375 C 1.925781 -0.769531 2.300781 -0.609375 2.75 -0.609375 C 3.195312 -0.609375 3.570312 -0.769531 3.875 -1.09375 C 4.175781 -1.425781 4.328125 -1.804688 4.328125 -2.234375 Z M 5.03125 0 L 4.328125 0 L 4.328125 -0.765625 C 4.285156 -0.710938 4.242188 -0.660156 4.203125 -0.609375 C 3.773438 -0.128906 3.253906 0.109375 2.640625 0.109375 C 2.015625 0.109375 1.492188 -0.128906 1.078125 -0.609375 C 0.660156 -1.066406 0.453125 -1.609375 0.453125 -2.234375 C 0.453125 -2.859375 0.660156 -3.398438 1.078125 -3.859375 C 1.492188 -4.335938 2.015625 -4.578125 2.640625 -4.578125 C 3.253906 -4.578125 3.773438 -4.335938 4.203125 -3.859375 C 4.242188 -3.816406 4.285156 -3.769531 4.328125 -3.71875 L 4.328125 -4.46875 L 5.03125 -4.46875 Z M 5.03125 0 "/></g></g></g><g fill="#ffffff" fill-opacity="1"><g transform="translate(106.71407, 107.428396)"><g><path d="M 2.171875 0.421875 L 0.109375 -4.46875 L 0.875 -4.46875 L 2.171875 -1.15625 L 3.453125 -4.46875 L 4.21875 -4.46875 Z M 2.171875 0.421875 "/></g></g></g><g fill="#ffffff" fill-opacity="1"><g transform="translate(111.034492, 107.428396)"><g><path d="M 5.140625 -2.34375 L 5.140625 -1.96875 L 1.203125 -1.96875 C 1.265625 -1.582031 1.453125 -1.265625 1.765625 -1.015625 C 2.078125 -0.765625 2.421875 -0.640625 2.796875 -0.640625 C 3.054688 -0.640625 3.304688 -0.703125 3.546875 -0.828125 C 3.773438 -0.941406 3.96875 -1.101562 4.125 -1.3125 L 4.9375 -1.3125 C 4.75 -0.882812 4.460938 -0.550781 4.078125 -0.3125 C 3.691406 -0.0507812 3.300781 0.078125 2.90625 0.078125 C 2.507812 0.078125 2.171875 0.015625 1.890625 -0.109375 C 1.609375 -0.234375 1.363281 -0.398438 1.15625 -0.609375 C 0.6875 -1.054688 0.453125 -1.609375 0.453125 -2.265625 C 0.453125 -2.898438 0.6875 -3.453125 1.15625 -3.921875 C 1.601562 -4.367188 2.148438 -4.59375 2.796875 -4.59375 C 3.421875 -4.59375 3.96875 -4.375 4.4375 -3.9375 C 4.90625 -3.488281 5.140625 -2.957031 5.140625 -2.34375 Z M 4.390625 -2.578125 C 4.304688 -2.953125 4.113281 -3.265625 3.8125 -3.515625 C 3.507812 -3.765625 3.171875 -3.890625 2.796875 -3.890625 C 2.210938 -3.890625 1.753906 -3.628906 1.421875 -3.109375 C 1.316406 -2.941406 1.242188 -2.765625 1.203125 -2.578125 Z M 4.390625 -2.578125 "/></g></g></g><g fill="#ffffff" fill-opacity="1"><g transform="translate(116.574796, 107.428396)"><g><path d="M 1.46875 0 L 0.765625 0 L 0.765625 -7.625 L 1.46875 -7.625 Z M 1.46875 0 "/></g></g></g><g fill="#ffffff" fill-opacity="1"><g transform="translate(118.81125, 107.428396)"><g><path d="M 1.484375 -6.015625 C 1.578125 -5.929688 1.625 -5.828125 1.625 -5.703125 C 1.625 -5.578125 1.578125 -5.46875 1.484375 -5.375 C 1.398438 -5.289062 1.296875 -5.25 1.171875 -5.25 C 1.035156 -5.25 0.925781 -5.289062 0.84375 -5.375 C 0.757812 -5.46875 0.71875 -5.578125 0.71875 -5.703125 C 0.71875 -5.828125 0.757812 -5.929688 0.84375 -6.015625 C 0.925781 -6.109375 1.035156 -6.15625 1.171875 -6.15625 C 1.296875 -6.15625 1.398438 -6.109375 1.484375 -6.015625 Z M 1.53125 0 L 0.8125 0 L 0.8125 -4.46875 L 1.53125 -4.46875 Z M 1.53125 0 "/></g></g></g><g fill="#ffffff" fill-opacity="1"><g transform="translate(121.139198, 107.428396)"><g><path d="M 3.859375 0 L 3.859375 -2.796875 C 3.859375 -3.085938 3.789062 -3.335938 3.65625 -3.546875 C 3.519531 -3.753906 3.300781 -3.859375 3 -3.859375 C 2.695312 -3.859375 2.453125 -3.800781 2.265625 -3.6875 C 2.066406 -3.570312 1.910156 -3.421875 1.796875 -3.234375 C 1.578125 -2.890625 1.46875 -2.4375 1.46875 -1.875 L 1.46875 0 L 0.765625 0 L 0.765625 -4.46875 L 1.46875 -4.46875 L 1.46875 -3.703125 C 1.625 -3.953125 1.816406 -4.160156 2.046875 -4.328125 C 2.285156 -4.484375 2.566406 -4.5625 2.890625 -4.5625 C 3.203125 -4.5625 3.457031 -4.519531 3.65625 -4.4375 C 3.851562 -4.34375 4.019531 -4.21875 4.15625 -4.0625 C 4.425781 -3.738281 4.5625 -3.316406 4.5625 -2.796875 L 4.5625 0 Z M 3.859375 0 "/></g></g></g><g fill="#ffffff" fill-opacity="1"><g transform="translate(126.313536, 107.428396)"><g><path d="M 4.328125 -2.234375 C 4.328125 -2.671875 4.175781 -3.050781 3.875 -3.375 C 3.570312 -3.695312 3.195312 -3.859375 2.75 -3.859375 C 2.300781 -3.859375 1.925781 -3.695312 1.625 -3.375 C 1.320312 -3.050781 1.171875 -2.671875 1.171875 -2.234375 C 1.171875 -1.804688 1.320312 -1.425781 1.625 -1.09375 C 1.925781 -0.769531 2.300781 -0.609375 2.75 -0.609375 C 3.195312 -0.609375 3.570312 -0.769531 3.875 -1.09375 C 4.175781 -1.425781 4.328125 -1.804688 4.328125 -2.234375 Z M 5.03125 0 L 4.328125 0 L 4.328125 -0.765625 C 4.285156 -0.710938 4.242188 -0.660156 4.203125 -0.609375 C 3.773438 -0.128906 3.253906 0.109375 2.640625 0.109375 C 2.015625 0.109375 1.492188 -0.128906 1.078125 -0.609375 C 0.660156 -1.066406 0.453125 -1.609375 0.453125 -2.234375 C 0.453125 -2.859375 0.660156 -3.398438 1.078125 -3.859375 C 1.492188 -4.335938 2.015625 -4.578125 2.640625 -4.578125 C 3.253906 -4.578125 3.773438 -4.335938 4.203125 -3.859375 C 4.242188 -3.816406 4.285156 -3.769531 4.328125 -3.71875 L 4.328125 -7.625 L 5.03125 -7.625 Z M 5.03125 0 "/></g></g></g><g fill="#ffffff" fill-opacity="1"><g transform="translate(132.107989, 107.428396)"><g><path d="M 3.859375 -0.765625 C 3.523438 -0.191406 3.023438 0.09375 2.359375 0.09375 C 1.859375 0.09375 1.46875 -0.0703125 1.1875 -0.40625 C 0.90625 -0.738281 0.765625 -1.160156 0.765625 -1.671875 L 0.765625 -4.46875 L 1.46875 -4.46875 L 1.46875 -1.671875 C 1.46875 -1.378906 1.535156 -1.132812 1.671875 -0.9375 C 1.804688 -0.726562 2.023438 -0.625 2.328125 -0.625 C 2.878906 -0.625 3.273438 -0.800781 3.515625 -1.15625 C 3.742188 -1.5 3.859375 -1.984375 3.859375 -2.609375 L 3.859375 -4.46875 L 4.5625 -4.46875 L 4.5625 0 L 3.859375 0 Z M 3.859375 -0.765625 "/></g></g></g><g fill="#ffffff" fill-opacity="1"><g transform="translate(137.282327, 107.428396)"><g><path d="M 1.40625 -0.640625 C 1.582031 -0.515625 1.816406 -0.453125 2.109375 -0.453125 C 2.753906 -0.453125 3.078125 -0.695312 3.078125 -1.1875 C 3.078125 -1.476562 2.84375 -1.695312 2.375 -1.84375 C 2.175781 -1.90625 1.96875 -1.96875 1.75 -2.03125 C 1.519531 -2.082031 1.304688 -2.148438 1.109375 -2.234375 C 0.878906 -2.347656 0.707031 -2.484375 0.59375 -2.640625 C 0.476562 -2.804688 0.421875 -3 0.421875 -3.21875 C 0.421875 -3.664062 0.578125 -4.003906 0.890625 -4.234375 C 1.203125 -4.460938 1.570312 -4.578125 2 -4.578125 C 2.4375 -4.578125 2.796875 -4.488281 3.078125 -4.3125 C 3.367188 -4.132812 3.5625 -3.816406 3.65625 -3.359375 L 2.90625 -3.359375 C 2.820312 -3.617188 2.703125 -3.785156 2.546875 -3.859375 C 2.390625 -3.941406 2.203125 -3.984375 1.984375 -3.984375 C 1.753906 -3.984375 1.5625 -3.9375 1.40625 -3.84375 C 1.25 -3.738281 1.171875 -3.585938 1.171875 -3.390625 C 1.171875 -3.191406 1.238281 -3.046875 1.375 -2.953125 C 1.5 -2.859375 1.660156 -2.78125 1.859375 -2.71875 C 2.054688 -2.65625 2.269531 -2.597656 2.5 -2.546875 C 2.726562 -2.492188 2.941406 -2.421875 3.140625 -2.328125 C 3.597656 -2.109375 3.828125 -1.757812 3.828125 -1.28125 C 3.828125 -0.800781 3.65625 -0.445312 3.3125 -0.21875 C 3.132812 -0.101562 2.941406 -0.015625 2.734375 0.046875 C 2.535156 0.0976562 2.3125 0.125 2.0625 0.125 C 1.03125 0.125 0.4375 -0.332031 0.28125 -1.25 L 1.03125 -1.25 C 1.101562 -0.957031 1.226562 -0.753906 1.40625 -0.640625 Z M 1.40625 -0.640625 "/></g></g></g><g fill="#ffffff" fill-opacity="1"><g transform="translate(141.368934, 107.428396)"><g><path d="M 0.203125 -3.8125 L 0.203125 -4.46875 L 1.328125 -4.46875 L 1.328125 -6.21875 L 2.03125 -6.21875 L 2.03125 -4.46875 L 3.140625 -4.46875 L 3.140625 -3.8125 L 2.03125 -3.8125 L 2.03125 0 L 1.328125 0 L 1.328125 -3.8125 Z M 0.203125 -3.8125 "/></g></g></g><g fill="#ffffff" fill-opacity="1"><g transform="translate(144.713454, 107.428396)"><g><path d="M 3.0625 -3.546875 C 2.894531 -3.703125 2.71875 -3.78125 2.53125 -3.78125 C 2.351562 -3.78125 2.195312 -3.726562 2.0625 -3.625 C 1.925781 -3.507812 1.816406 -3.378906 1.734375 -3.234375 C 1.554688 -2.929688 1.46875 -2.597656 1.46875 -2.234375 L 1.46875 0 L 0.765625 0 L 0.765625 -4.46875 L 1.46875 -4.46875 L 1.46875 -3.546875 L 1.5 -3.734375 C 1.738281 -4.285156 2.109375 -4.5625 2.609375 -4.5625 C 2.765625 -4.5625 2.914062 -4.53125 3.0625 -4.46875 Z M 3.0625 -3.546875 "/></g></g></g><g fill="#ffffff" fill-opacity="1"><g transform="translate(147.874984, 107.428396)"><g><path d="M 1.484375 -6.015625 C 1.578125 -5.929688 1.625 -5.828125 1.625 -5.703125 C 1.625 -5.578125 1.578125 -5.46875 1.484375 -5.375 C 1.398438 -5.289062 1.296875 -5.25 1.171875 -5.25 C 1.035156 -5.25 0.925781 -5.289062 0.84375 -5.375 C 0.757812 -5.46875 0.71875 -5.578125 0.71875 -5.703125 C 0.71875 -5.828125 0.757812 -5.929688 0.84375 -6.015625 C 0.925781 -6.109375 1.035156 -6.15625 1.171875 -6.15625 C 1.296875 -6.15625 1.398438 -6.109375 1.484375 -6.015625 Z M 1.53125 0 L 0.8125 0 L 0.8125 -4.46875 L 1.53125 -4.46875 Z M 1.53125 0 "/></g></g></g><g fill="#ffffff" fill-opacity="1"><g transform="translate(150.202933, 107.428396)"><g><path d="M 5.140625 -2.34375 L 5.140625 -1.96875 L 1.203125 -1.96875 C 1.265625 -1.582031 1.453125 -1.265625 1.765625 -1.015625 C 2.078125 -0.765625 2.421875 -0.640625 2.796875 -0.640625 C 3.054688 -0.640625 3.304688 -0.703125 3.546875 -0.828125 C 3.773438 -0.941406 3.96875 -1.101562 4.125 -1.3125 L 4.9375 -1.3125 C 4.75 -0.882812 4.460938 -0.550781 4.078125 -0.3125 C 3.691406 -0.0507812 3.300781 0.078125 2.90625 0.078125 C 2.507812 0.078125 2.171875 0.015625 1.890625 -0.109375 C 1.609375 -0.234375 1.363281 -0.398438 1.15625 -0.609375 C 0.6875 -1.054688 0.453125 -1.609375 0.453125 -2.265625 C 0.453125 -2.898438 0.6875 -3.453125 1.15625 -3.921875 C 1.601562 -4.367188 2.148438 -4.59375 2.796875 -4.59375 C 3.421875 -4.59375 3.96875 -4.375 4.4375 -3.9375 C 4.90625 -3.488281 5.140625 -2.957031 5.140625 -2.34375 Z M 4.390625 -2.578125 C 4.304688 -2.953125 4.113281 -3.265625 3.8125 -3.515625 C 3.507812 -3.765625 3.171875 -3.890625 2.796875 -3.890625 C 2.210938 -3.890625 1.753906 -3.628906 1.421875 -3.109375 C 1.316406 -2.941406 1.242188 -2.765625 1.203125 -2.578125 Z M 4.390625 -2.578125 "/></g></g></g><g fill="#ffffff" fill-opacity="1"><g transform="translate(155.743237, 107.428396)"><g><path d="M 1.40625 -0.640625 C 1.582031 -0.515625 1.816406 -0.453125 2.109375 -0.453125 C 2.753906 -0.453125 3.078125 -0.695312 3.078125 -1.1875 C 3.078125 -1.476562 2.84375 -1.695312 2.375 -1.84375 C 2.175781 -1.90625 1.96875 -1.96875 1.75 -2.03125 C 1.519531 -2.082031 1.304688 -2.148438 1.109375 -2.234375 C 0.878906 -2.347656 0.707031 -2.484375 0.59375 -2.640625 C 0.476562 -2.804688 0.421875 -3 0.421875 -3.21875 C 0.421875 -3.664062 0.578125 -4.003906 0.890625 -4.234375 C 1.203125 -4.460938 1.570312 -4.578125 2 -4.578125 C 2.4375 -4.578125 2.796875 -4.488281 3.078125 -4.3125 C 3.367188 -4.132812 3.5625 -3.816406 3.65625 -3.359375 L 2.90625 -3.359375 C 2.820312 -3.617188 2.703125 -3.785156 2.546875 -3.859375 C 2.390625 -3.941406 2.203125 -3.984375 1.984375 -3.984375 C 1.753906 -3.984375 1.5625 -3.9375 1.40625 -3.84375 C 1.25 -3.738281 1.171875 -3.585938 1.171875 -3.390625 C 1.171875 -3.191406 1.238281 -3.046875 1.375 -2.953125 C 1.5 -2.859375 1.660156 -2.78125 1.859375 -2.71875 C 2.054688 -2.65625 2.269531 -2.597656 2.5 -2.546875 C 2.726562 -2.492188 2.941406 -2.421875 3.140625 -2.328125 C 3.597656 -2.109375 3.828125 -1.757812 3.828125 -1.28125 C 3.828125 -0.800781 3.65625 -0.445312 3.3125 -0.21875 C 3.132812 -0.101562 2.941406 -0.015625 2.734375 0.046875 C 2.535156 0.0976562 2.3125 0.125 2.0625 0.125 C 1.03125 0.125 0.4375 -0.332031 0.28125 -1.25 L 1.03125 -1.25 C 1.101562 -0.957031 1.226562 -0.753906 1.40625 -0.640625 Z M 1.40625 -0.640625 "/></g></g></g><g fill="#ffffff" fill-opacity="1"><g transform="translate(159.829844, 107.428396)"><g><path d="M 1.359375 0.109375 C 1.203125 0.109375 1.066406 0.046875 0.953125 -0.078125 C 0.828125 -0.179688 0.765625 -0.3125 0.765625 -0.46875 C 0.765625 -0.625 0.820312 -0.757812 0.9375 -0.875 C 1.050781 -0.988281 1.191406 -1.046875 1.359375 -1.046875 C 1.515625 -1.046875 1.65625 -0.992188 1.78125 -0.890625 C 1.894531 -0.773438 1.953125 -0.640625 1.953125 -0.484375 C 1.953125 -0.316406 1.890625 -0.179688 1.765625 -0.078125 C 1.648438 0.046875 1.515625 0.109375 1.359375 0.109375 Z M 1.359375 0.109375 "/></g></g></g><g fill="#ffffff" fill-opacity="1"><g transform="translate(162.544082, 107.428396)"><g><path d="M 4.9375 -2.875 L 4.171875 -2.875 C 4.046875 -3.15625 3.851562 -3.382812 3.59375 -3.5625 C 3.34375 -3.738281 3.082031 -3.828125 2.8125 -3.828125 C 2.550781 -3.828125 2.328125 -3.785156 2.140625 -3.703125 C 1.941406 -3.617188 1.773438 -3.503906 1.640625 -3.359375 C 1.335938 -3.035156 1.1875 -2.660156 1.1875 -2.234375 C 1.1875 -1.804688 1.335938 -1.4375 1.640625 -1.125 C 1.941406 -0.800781 2.3125 -0.640625 2.75 -0.640625 C 3.03125 -0.640625 3.296875 -0.710938 3.546875 -0.859375 C 3.773438 -1.015625 3.957031 -1.21875 4.09375 -1.46875 L 4.90625 -1.46875 C 4.65625 -0.75 4.171875 -0.265625 3.453125 -0.015625 C 3.222656 0.0664062 2.96875 0.109375 2.6875 0.109375 C 2.40625 0.109375 2.125 0.0390625 1.84375 -0.09375 C 1.5625 -0.21875 1.320312 -0.382812 1.125 -0.59375 C 0.675781 -1.0625 0.453125 -1.609375 0.453125 -2.234375 C 0.453125 -2.867188 0.675781 -3.414062 1.125 -3.875 C 1.570312 -4.332031 2.113281 -4.5625 2.75 -4.5625 C 3.257812 -4.5625 3.722656 -4.40625 4.140625 -4.09375 C 4.535156 -3.78125 4.800781 -3.375 4.9375 -2.875 Z M 4.9375 -2.875 "/></g></g></g><g fill="#ffffff" fill-opacity="1"><g transform="translate(167.840416, 107.428396)"><g><path d="M 4.421875 -2.265625 C 4.421875 -2.703125 4.265625 -3.082031 3.953125 -3.40625 C 3.628906 -3.726562 3.242188 -3.890625 2.796875 -3.890625 C 2.347656 -3.890625 1.960938 -3.726562 1.640625 -3.40625 C 1.328125 -3.082031 1.171875 -2.703125 1.171875 -2.265625 C 1.171875 -1.816406 1.328125 -1.4375 1.640625 -1.125 C 1.960938 -0.800781 2.347656 -0.640625 2.796875 -0.640625 C 3.242188 -0.640625 3.628906 -0.800781 3.953125 -1.125 C 4.265625 -1.4375 4.421875 -1.816406 4.421875 -2.265625 Z M 5.140625 -2.265625 C 5.140625 -1.609375 4.910156 -1.054688 4.453125 -0.609375 C 3.984375 -0.148438 3.429688 0.078125 2.796875 0.078125 C 2.160156 0.078125 1.613281 -0.148438 1.15625 -0.609375 C 0.6875 -1.054688 0.453125 -1.609375 0.453125 -2.265625 C 0.453125 -2.898438 0.6875 -3.453125 1.15625 -3.921875 C 1.601562 -4.367188 2.148438 -4.59375 2.796875 -4.59375 C 3.441406 -4.59375 3.992188 -4.367188 4.453125 -3.921875 C 4.910156 -3.453125 5.140625 -2.898438 5.140625 -2.265625 Z M 5.140625 -2.265625 "/></g></g></g><g fill="#ffffff" fill-opacity="1"><g transform="translate(173.431557, 107.428396)"><g><path d="M 6.4375 -0.015625 L 6.4375 -2.8125 C 6.4375 -3.28125 6.289062 -3.609375 6 -3.796875 C 5.894531 -3.859375 5.738281 -3.890625 5.53125 -3.890625 C 5.320312 -3.890625 5.125 -3.828125 4.9375 -3.703125 C 4.757812 -3.578125 4.613281 -3.421875 4.5 -3.234375 C 4.457031 -3.160156 4.421875 -3.078125 4.390625 -2.984375 C 4.390625 -2.929688 4.390625 -2.875 4.390625 -2.8125 L 4.390625 -0.015625 L 3.6875 -0.015625 L 3.6875 -2.8125 C 3.6875 -3.28125 3.539062 -3.609375 3.25 -3.796875 C 3.144531 -3.859375 2.988281 -3.890625 2.78125 -3.890625 C 2.570312 -3.890625 2.375 -3.828125 2.1875 -3.703125 C 2 -3.578125 1.851562 -3.421875 1.75 -3.234375 C 1.601562 -2.984375 1.507812 -2.675781 1.46875 -2.3125 L 1.46875 -0.015625 L 0.765625 -0.015625 L 0.765625 -4.5 L 1.46875 -4.5 L 1.46875 -3.78125 C 1.601562 -4.007812 1.773438 -4.195312 1.984375 -4.34375 C 2.210938 -4.507812 2.484375 -4.59375 2.796875 -4.59375 C 3.109375 -4.59375 3.359375 -4.546875 3.546875 -4.453125 C 3.734375 -4.347656 3.894531 -4.21875 4.03125 -4.0625 C 4.09375 -3.96875 4.15625 -3.863281 4.21875 -3.75 C 4.351562 -3.988281 4.523438 -4.1875 4.734375 -4.34375 C 4.972656 -4.507812 5.242188 -4.59375 5.546875 -4.59375 C 5.859375 -4.59375 6.113281 -4.546875 6.3125 -4.453125 C 6.5 -4.347656 6.65625 -4.21875 6.78125 -4.0625 C 7.03125 -3.738281 7.15625 -3.320312 7.15625 -2.8125 L 7.15625 -0.015625 Z M 6.4375 -0.015625 "/></g></g></g><g fill="#ffffff" fill-opacity="1"><g transform="translate(109.770653, 92.961153)"><g><path d="M 4.234375 -4.203125 L 2.53125 0 L 1.734375 0 L 0.03125 -4.203125 L 1.03125 -4.203125 L 1.90625 -1.84375 L 2.125 -1.1875 L 2.359375 -1.84375 L 3.234375 -4.203125 Z M 4.234375 -4.203125 "/></g></g></g><g fill="#ffffff" fill-opacity="1"><g transform="translate(114.03054, 92.961153)"><g><path d="M 0.328125 -3.65625 C 0.328125 -3.8125 0.378906 -3.941406 0.484375 -4.046875 C 0.585938 -4.148438 0.710938 -4.203125 0.859375 -4.203125 C 1.015625 -4.203125 1.144531 -4.148438 1.25 -4.046875 C 1.351562 -3.941406 1.40625 -3.8125 1.40625 -3.65625 C 1.40625 -3.507812 1.351562 -3.382812 1.25 -3.28125 C 1.144531 -3.175781 1.015625 -3.125 0.859375 -3.125 C 0.710938 -3.125 0.585938 -3.175781 0.484375 -3.28125 C 0.378906 -3.382812 0.328125 -3.507812 0.328125 -3.65625 Z M 1.328125 0 L 0.40625 0 L 0.40625 -2.734375 L 1.328125 -2.734375 Z M 1.328125 0 "/></g></g></g><g fill="#ffffff" fill-opacity="1"><g transform="translate(115.761703, 92.961153)"><g><path d="M 2.890625 -1.90625 L 1.984375 -1.90625 C 1.972656 -2.019531 1.921875 -2.097656 1.828125 -2.140625 C 1.734375 -2.191406 1.640625 -2.21875 1.546875 -2.21875 C 1.453125 -2.21875 1.363281 -2.191406 1.28125 -2.140625 C 1.207031 -2.097656 1.171875 -2.039062 1.171875 -1.96875 C 1.171875 -1.90625 1.210938 -1.859375 1.296875 -1.828125 C 1.378906 -1.796875 1.488281 -1.769531 1.625 -1.75 C 1.757812 -1.726562 1.898438 -1.703125 2.046875 -1.671875 C 2.203125 -1.648438 2.347656 -1.609375 2.484375 -1.546875 C 2.617188 -1.484375 2.726562 -1.394531 2.8125 -1.28125 C 2.894531 -1.164062 2.9375 -1.007812 2.9375 -0.8125 C 2.9375 -0.601562 2.878906 -0.429688 2.765625 -0.296875 C 2.648438 -0.171875 2.492188 -0.078125 2.296875 -0.015625 C 2.097656 0.0351562 1.863281 0.0625 1.59375 0.0625 C 1.320312 0.0625 1.078125 0.0234375 0.859375 -0.046875 C 0.648438 -0.117188 0.476562 -0.234375 0.34375 -0.390625 C 0.21875 -0.546875 0.144531 -0.753906 0.125 -1.015625 L 1.046875 -1.015625 C 1.046875 -0.878906 1.078125 -0.78125 1.140625 -0.71875 C 1.210938 -0.65625 1.289062 -0.613281 1.375 -0.59375 C 1.46875 -0.582031 1.546875 -0.578125 1.609375 -0.578125 C 1.722656 -0.578125 1.816406 -0.597656 1.890625 -0.640625 C 1.960938 -0.679688 2 -0.738281 2 -0.8125 C 2 -0.90625 1.957031 -0.972656 1.875 -1.015625 C 1.789062 -1.066406 1.679688 -1.101562 1.546875 -1.125 C 1.410156 -1.15625 1.265625 -1.179688 1.109375 -1.203125 C 0.960938 -1.234375 0.820312 -1.269531 0.6875 -1.3125 C 0.5625 -1.363281 0.453125 -1.4375 0.359375 -1.53125 C 0.273438 -1.625 0.234375 -1.753906 0.234375 -1.921875 C 0.234375 -2.203125 0.34375 -2.414062 0.5625 -2.5625 C 0.78125 -2.71875 1.117188 -2.796875 1.578125 -2.796875 C 1.929688 -2.796875 2.226562 -2.722656 2.46875 -2.578125 C 2.707031 -2.441406 2.847656 -2.21875 2.890625 -1.90625 Z M 2.890625 -1.90625 "/></g></g></g><g fill="#ffffff" fill-opacity="1"><g transform="translate(118.883975, 92.961153)"><g><path d="M 0.328125 -3.65625 C 0.328125 -3.8125 0.378906 -3.941406 0.484375 -4.046875 C 0.585938 -4.148438 0.710938 -4.203125 0.859375 -4.203125 C 1.015625 -4.203125 1.144531 -4.148438 1.25 -4.046875 C 1.351562 -3.941406 1.40625 -3.8125 1.40625 -3.65625 C 1.40625 -3.507812 1.351562 -3.382812 1.25 -3.28125 C 1.144531 -3.175781 1.015625 -3.125 0.859375 -3.125 C 0.710938 -3.125 0.585938 -3.175781 0.484375 -3.28125 C 0.378906 -3.382812 0.328125 -3.507812 0.328125 -3.65625 Z M 1.328125 0 L 0.40625 0 L 0.40625 -2.734375 L 1.328125 -2.734375 Z M 1.328125 0 "/></g></g></g><g fill="#ffffff" fill-opacity="1"><g transform="translate(120.615139, 92.961153)"><g><path d="M 1.546875 -2.015625 L 1.546875 0 L 0.625 0 L 0.625 -2.015625 L 0.125 -2.015625 L 0.125 -2.734375 L 0.625 -2.734375 L 0.625 -3.765625 L 1.546875 -3.765625 L 1.546875 -2.734375 L 2.03125 -2.734375 L 2.03125 -2.015625 Z M 1.546875 -2.015625 "/></g></g></g><g fill="#ffffff" fill-opacity="1"><g transform="translate(122.772908, 92.961153)"><g/></g></g><g fill="#ffffff" fill-opacity="1"><g transform="translate(124.318584, 92.961153)"><g><path d="M 0.3125 -1.171875 L 0.3125 -2.734375 L 1.234375 -2.734375 L 1.234375 -1.171875 C 1.234375 -1.015625 1.265625 -0.894531 1.328125 -0.8125 C 1.398438 -0.726562 1.507812 -0.6875 1.65625 -0.6875 C 1.800781 -0.6875 1.921875 -0.753906 2.015625 -0.890625 C 2.117188 -1.023438 2.171875 -1.179688 2.171875 -1.359375 L 2.171875 -2.734375 L 3.09375 -2.734375 L 3.09375 0 L 2.171875 0 L 2.171875 -0.328125 C 2.078125 -0.210938 1.957031 -0.117188 1.8125 -0.046875 C 1.675781 0.0234375 1.519531 0.0625 1.34375 0.0625 C 0.976562 0.0625 0.710938 -0.0507812 0.546875 -0.28125 C 0.390625 -0.507812 0.3125 -0.804688 0.3125 -1.171875 Z M 0.3125 -1.171875 "/></g></g></g><g fill="#ffffff" fill-opacity="1"><g transform="translate(127.787083, 92.961153)"><g><path d="M 2.890625 -1.90625 L 1.984375 -1.90625 C 1.972656 -2.019531 1.921875 -2.097656 1.828125 -2.140625 C 1.734375 -2.191406 1.640625 -2.21875 1.546875 -2.21875 C 1.453125 -2.21875 1.363281 -2.191406 1.28125 -2.140625 C 1.207031 -2.097656 1.171875 -2.039062 1.171875 -1.96875 C 1.171875 -1.90625 1.210938 -1.859375 1.296875 -1.828125 C 1.378906 -1.796875 1.488281 -1.769531 1.625 -1.75 C 1.757812 -1.726562 1.898438 -1.703125 2.046875 -1.671875 C 2.203125 -1.648438 2.347656 -1.609375 2.484375 -1.546875 C 2.617188 -1.484375 2.726562 -1.394531 2.8125 -1.28125 C 2.894531 -1.164062 2.9375 -1.007812 2.9375 -0.8125 C 2.9375 -0.601562 2.878906 -0.429688 2.765625 -0.296875 C 2.648438 -0.171875 2.492188 -0.078125 2.296875 -0.015625 C 2.097656 0.0351562 1.863281 0.0625 1.59375 0.0625 C 1.320312 0.0625 1.078125 0.0234375 0.859375 -0.046875 C 0.648438 -0.117188 0.476562 -0.234375 0.34375 -0.390625 C 0.21875 -0.546875 0.144531 -0.753906 0.125 -1.015625 L 1.046875 -1.015625 C 1.046875 -0.878906 1.078125 -0.78125 1.140625 -0.71875 C 1.210938 -0.65625 1.289062 -0.613281 1.375 -0.59375 C 1.46875 -0.582031 1.546875 -0.578125 1.609375 -0.578125 C 1.722656 -0.578125 1.816406 -0.597656 1.890625 -0.640625 C 1.960938 -0.679688 2 -0.738281 2 -0.8125 C 2 -0.90625 1.957031 -0.972656 1.875 -1.015625 C 1.789062 -1.066406 1.679688 -1.101562 1.546875 -1.125 C 1.410156 -1.15625 1.265625 -1.179688 1.109375 -1.203125 C 0.960938 -1.234375 0.820312 -1.269531 0.6875 -1.3125 C 0.5625 -1.363281 0.453125 -1.4375 0.359375 -1.53125 C 0.273438 -1.625 0.234375 -1.753906 0.234375 -1.921875 C 0.234375 -2.203125 0.34375 -2.414062 0.5625 -2.5625 C 0.78125 -2.71875 1.117188 -2.796875 1.578125 -2.796875 C 1.929688 -2.796875 2.226562 -2.722656 2.46875 -2.578125 C 2.707031 -2.441406 2.847656 -2.21875 2.890625 -1.90625 Z M 2.890625 -1.90625 "/></g></g></g><g clip-path="url(#3c3af89575)"><path fill="#ffffff" d="M 116.589844 38.082031 L 116.574219 38.097656 L 116.566406 38.109375 C 116.09375 38.585938 115.730469 39.132812 115.480469 39.753906 C 115.265625 40.277344 115.140625 40.824219 115.109375 41.390625 C 115.078125 41.953125 115.136719 42.511719 115.289062 43.054688 C 115.441406 43.601562 115.679688 44.105469 116 44.574219 C 116.320312 45.039062 116.710938 45.441406 117.164062 45.777344 C 117.621094 46.117188 118.117188 46.371094 118.660156 46.539062 C 119.199219 46.710938 119.753906 46.789062 120.316406 46.777344 C 120.882812 46.761719 121.433594 46.65625 121.964844 46.460938 C 122.496094 46.265625 122.980469 45.984375 123.417969 45.628906 L 123.449219 45.597656 L 123.464844 45.589844 C 123.515625 45.550781 123.566406 45.507812 123.613281 45.457031 C 123.644531 45.433594 123.683594 45.394531 123.722656 45.359375 L 123.796875 45.285156 C 123.804688 45.28125 123.808594 45.273438 123.8125 45.265625 C 124.28125 44.796875 124.640625 44.261719 124.894531 43.652344 C 125.15625 43.023438 125.289062 42.363281 125.289062 41.683594 C 125.289062 40.273438 124.714844 39.007812 123.796875 38.082031 C 123.453125 37.742188 123.070312 37.457031 122.648438 37.222656 C 122.222656 36.988281 121.773438 36.820312 121.300781 36.714844 C 120.828125 36.609375 120.351562 36.574219 119.867188 36.601562 C 119.386719 36.632812 118.917969 36.730469 118.460938 36.894531 C 117.902344 37.09375 117.394531 37.386719 116.9375 37.769531 L 116.921875 37.777344 C 116.882812 37.808594 116.839844 37.847656 116.796875 37.882812 C 116.761719 37.921875 116.71875 37.964844 116.664062 38.011719 Z M 113.789062 34.902344 C 113.363281 35.304688 112.976562 35.742188 112.632812 36.21875 C 112.289062 36.695312 111.992188 37.199219 111.742188 37.730469 C 111.496094 38.265625 111.296875 38.816406 111.152344 39.382812 C 111.007812 39.953125 110.917969 40.53125 110.882812 41.117188 C 110.847656 41.703125 110.867188 42.289062 110.941406 42.871094 C 111.015625 43.453125 111.144531 44.023438 111.328125 44.582031 C 111.507812 45.140625 111.742188 45.675781 112.027344 46.191406 C 112.308594 46.703125 112.640625 47.1875 113.015625 47.640625 C 114.335938 49.230469 116.175781 50.375 118.265625 50.8125 L 119.363281 49.71875 C 117.460938 49.527344 115.757812 48.671875 114.480469 47.398438 C 113.019531 45.933594 112.113281 43.914062 112.113281 41.679688 C 112.117188 40.609375 112.320312 39.582031 112.730469 38.589844 C 113.140625 37.601562 113.722656 36.730469 114.480469 35.972656 L 119.695312 30.757812 C 119.867188 30.582031 120.140625 30.582031 120.3125 30.757812 C 120.394531 30.839844 120.4375 30.941406 120.4375 31.0625 C 120.4375 31.179688 120.394531 31.28125 120.3125 31.367188 L 120.269531 31.414062 L 120.273438 31.414062 L 119.394531 32.289062 L 115.671875 36.011719 C 115.65625 36.027344 115.640625 36.042969 115.621094 36.054688 L 115.097656 36.582031 C 114.421875 37.257812 113.902344 38.039062 113.53125 38.921875 C 113.164062 39.804688 112.980469 40.722656 112.984375 41.679688 C 112.984375 43.671875 113.789062 45.476562 115.097656 46.78125 C 115.769531 47.457031 116.550781 47.976562 117.429688 48.34375 C 118.3125 48.707031 119.230469 48.890625 120.183594 48.894531 L 121.601562 47.476562 C 121.140625 47.589844 120.671875 47.644531 120.195312 47.644531 C 118.546875 47.644531 117.054688 46.976562 115.976562 45.898438 C 114.898438 44.820312 114.230469 43.328125 114.230469 41.679688 C 114.230469 40.898438 114.378906 40.144531 114.675781 39.417969 C 114.972656 38.695312 115.398438 38.054688 115.949219 37.5 L 115.949219 37.492188 C 115.960938 37.484375 115.96875 37.476562 115.976562 37.464844 L 122.6875 30.753906 C 122.773438 30.671875 122.875 30.628906 122.996094 30.628906 C 123.117188 30.628906 123.21875 30.671875 123.304688 30.753906 C 123.386719 30.839844 123.429688 30.945312 123.429688 31.0625 C 123.429688 31.183594 123.386719 31.285156 123.304688 31.371094 L 122.839844 31.835938 C 123.714844 32.070312 124.542969 32.414062 125.328125 32.871094 C 126.113281 33.328125 126.824219 33.878906 127.460938 34.523438 C 128.09375 35.171875 128.636719 35.886719 129.082031 36.679688 C 129.527344 37.46875 129.859375 38.304688 130.082031 39.183594 C 130.304688 40.0625 130.40625 40.953125 130.390625 41.859375 C 130.375 42.769531 130.242188 43.65625 129.988281 44.527344 C 129.734375 45.398438 129.371094 46.21875 128.898438 46.992188 C 128.425781 47.765625 127.859375 48.464844 127.199219 49.089844 C 127.195312 49.09375 127.191406 49.097656 127.1875 49.101562 L 123.675781 52.613281 C 123.589844 52.695312 123.488281 52.738281 123.371094 52.738281 C 123.25 52.738281 123.148438 52.695312 123.0625 52.609375 C 122.980469 52.523438 122.9375 52.421875 122.9375 52.300781 C 122.9375 52.183594 122.980469 52.082031 123.066406 51.996094 L 126.574219 48.488281 C 126.582031 48.480469 126.585938 48.472656 126.59375 48.46875 C 127.527344 47.589844 128.25 46.5625 128.761719 45.382812 C 129.25 44.253906 129.519531 43 129.519531 41.679688 C 129.519531 41.148438 129.472656 40.621094 129.382812 40.097656 C 129.292969 39.574219 129.160156 39.0625 128.984375 38.5625 C 128.804688 38.0625 128.585938 37.582031 128.328125 37.117188 C 128.066406 36.65625 127.769531 36.21875 127.4375 35.804688 C 127.101562 35.390625 126.734375 35.011719 126.335938 34.660156 C 125.9375 34.3125 125.507812 33.996094 125.054688 33.722656 C 124.601562 33.445312 124.128906 33.207031 123.636719 33.011719 C 123.144531 32.816406 122.636719 32.660156 122.117188 32.550781 L 121.027344 33.648438 C 121.785156 33.726562 122.519531 33.910156 123.226562 34.195312 C 123.933594 34.480469 124.589844 34.863281 125.1875 35.332031 C 125.789062 35.804688 126.3125 36.351562 126.757812 36.972656 C 127.203125 37.59375 127.554688 38.261719 127.808594 38.980469 C 128.0625 39.703125 128.214844 40.441406 128.257812 41.203125 C 128.304688 41.96875 128.242188 42.722656 128.074219 43.464844 C 127.90625 44.210938 127.636719 44.917969 127.269531 45.585938 C 126.898438 46.253906 126.445312 46.859375 125.90625 47.398438 L 120.691406 52.613281 C 120.605469 52.699219 120.5 52.746094 120.378906 52.746094 C 120.257812 52.746094 120.15625 52.703125 120.070312 52.617188 C 119.984375 52.53125 119.941406 52.425781 119.941406 52.304688 C 119.941406 52.183594 119.984375 52.082031 120.074219 51.996094 L 120.121094 51.953125 L 120.113281 51.953125 L 120.992188 51.074219 L 124.597656 47.472656 C 124.625 47.398438 124.667969 47.339844 124.726562 47.292969 C 124.820312 47.21875 124.914062 47.132812 125.015625 47.042969 C 125.105469 46.964844 125.195312 46.882812 125.289062 46.785156 L 125.292969 46.78125 C 125.96875 46.105469 126.492188 45.324219 126.859375 44.441406 C 127.210938 43.59375 127.402344 42.660156 127.402344 41.679688 C 127.402344 40.726562 127.222656 39.808594 126.855469 38.925781 C 126.492188 38.042969 125.96875 37.261719 125.292969 36.585938 C 123.988281 35.28125 122.191406 34.476562 120.199219 34.476562 L 118.78125 35.890625 C 119.792969 35.644531 120.800781 35.664062 121.800781 35.945312 C 122.804688 36.222656 123.671875 36.730469 124.410156 37.464844 C 125.488281 38.546875 126.160156 40.039062 126.160156 41.679688 C 126.15625 42.464844 126.007812 43.21875 125.710938 43.945312 C 125.414062 44.671875 124.988281 45.3125 124.4375 45.871094 C 124.425781 45.878906 124.421875 45.890625 124.410156 45.902344 L 117.695312 52.613281 C 117.613281 52.695312 117.507812 52.738281 117.390625 52.734375 C 117.269531 52.734375 117.167969 52.691406 117.085938 52.609375 C 117 52.523438 116.957031 52.421875 116.957031 52.304688 C 116.957031 52.183594 116.996094 52.082031 117.082031 51.996094 L 117.542969 51.53125 C 115.484375 50.980469 113.679688 49.792969 112.351562 48.195312 C 110.882812 46.429688 109.996094 44.15625 109.996094 41.679688 C 109.996094 40.28125 110.273438 38.9375 110.828125 37.652344 C 111.382812 36.367188 112.167969 35.242188 113.183594 34.277344 L 116.707031 30.753906 C 116.792969 30.671875 116.894531 30.628906 117.015625 30.628906 C 117.136719 30.628906 117.238281 30.671875 117.324219 30.753906 C 117.410156 30.839844 117.453125 30.945312 117.449219 31.0625 C 117.449219 31.183594 117.410156 31.285156 117.324219 31.371094 L 113.816406 34.878906 C 113.804688 34.886719 113.796875 34.890625 113.789062 34.902344 Z M 113.789062 34.902344 " fill-opacity="1" fill-rule="nonzero"/></g><g fill="#ffffff" fill-opacity="1"><g transform="translate(97.695404, 66.914061)"><g><path d="M 0.5 0 L 0.5 -11.140625 L 3.890625 -11.140625 L 4.828125 -4.34375 L 5.765625 -11.140625 L 9.1875 -11.140625 L 9.1875 0 L 7.140625 0 L 7.140625 -8.03125 L 5.859375 0 L 3.859375 0 L 2.5 -8.03125 L 2.5 0 Z M 0.5 0 "/></g></g></g><g fill="#ffffff" fill-opacity="1"><g transform="translate(107.777683, 66.914061)"><g><path d="M 0.5 0 L 0.5 -11.140625 L 4.953125 -11.140625 L 4.953125 -8.984375 L 2.765625 -8.984375 L 2.765625 -6.828125 L 4.859375 -6.828125 L 4.859375 -4.71875 L 2.765625 -4.71875 L 2.765625 -2.171875 L 5.09375 -2.171875 L 5.09375 0 Z M 0.5 0 "/></g></g></g><g fill="#ffffff" fill-opacity="1"><g transform="translate(113.531674, 66.914061)"><g><path d="M 1.453125 0 L 1.453125 -9 L 0.125 -9 L 0.125 -11.140625 L 5 -11.140625 L 5 -9 L 3.6875 -9 L 3.6875 0 Z M 1.453125 0 "/></g></g></g><g fill="#ffffff" fill-opacity="1"><g transform="translate(119.078323, 66.914061)"><g><path d="M 0.1875 0 L 1.265625 -11.140625 L 5.046875 -11.140625 L 6.109375 0 L 4 0 L 3.84375 -1.796875 L 2.484375 -1.796875 L 2.359375 0 Z M 2.65625 -3.578125 L 3.671875 -3.578125 L 3.171875 -9.25 L 3.078125 -9.25 Z M 2.65625 -3.578125 "/></g></g></g><g fill="#ffffff" fill-opacity="1"><g transform="translate(125.778313, 66.914061)"><g><path d="M 1.515625 0 L 0.140625 -11.15625 L 2.265625 -11.15625 L 3.09375 -3.5625 L 3.8125 -11.15625 L 5.9375 -11.15625 L 4.5625 0 Z M 1.515625 0 "/></g></g></g><g fill="#ffffff" fill-opacity="1"><g transform="translate(132.27096, 66.914061)"><g><path d="M 0.5 0 L 0.5 -11.140625 L 4.953125 -11.140625 L 4.953125 -8.984375 L 2.765625 -8.984375 L 2.765625 -6.828125 L 4.859375 -6.828125 L 4.859375 -4.71875 L 2.765625 -4.71875 L 2.765625 -2.171875 L 5.09375 -2.171875 L 5.09375 0 Z M 0.5 0 "/></g></g></g><g fill="#ffffff" fill-opacity="1"><g transform="translate(138.024951, 66.914061)"><g><path d="M 0.5 0 L 0.5 -11.140625 L 2.71875 -11.140625 L 2.71875 -1.890625 L 5.015625 -1.890625 L 5.015625 0 Z M 0.5 0 "/></g></g></g><g fill="#ffffff" fill-opacity="1"><g transform="translate(97.914107, 73.151488)"><g><path d="M 0.890625 0 L 0.359375 0 L 0.359375 -2.703125 L 0.890625 -2.703125 Z M 0.890625 0 "/></g></g></g><g fill="#ffffff" fill-opacity="1"><g transform="translate(101.584258, 73.151488)"><g><path d="M 0.875 0 L 0.359375 0 L 0.359375 -2.703125 L 0.96875 -2.703125 L 2.046875 -0.96875 L 2.109375 -0.96875 L 2.109375 -2.703125 L 2.625 -2.703125 L 2.625 0 L 2.0625 0 L 0.921875 -1.859375 L 0.875 -1.859375 Z M 0.875 0 "/></g></g></g><g fill="#ffffff" fill-opacity="1"><g transform="translate(106.984951, 73.151488)"><g><path d="M 1.328125 -2.703125 C 1.765625 -2.703125 2.097656 -2.585938 2.328125 -2.359375 C 2.566406 -2.140625 2.6875 -1.804688 2.6875 -1.359375 C 2.6875 -0.910156 2.566406 -0.570312 2.328125 -0.34375 C 2.097656 -0.113281 1.765625 0 1.328125 0 L 0.359375 0 L 0.359375 -2.703125 Z M 1.296875 -0.453125 C 1.578125 -0.453125 1.785156 -0.519531 1.921875 -0.65625 C 2.054688 -0.800781 2.125 -1.035156 2.125 -1.359375 C 2.125 -1.671875 2.054688 -1.898438 1.921875 -2.046875 C 1.785156 -2.191406 1.578125 -2.265625 1.296875 -2.265625 L 0.890625 -2.265625 L 0.890625 -0.453125 Z M 1.296875 -0.453125 "/></g></g></g><g fill="#ffffff" fill-opacity="1"><g transform="translate(112.311452, 73.151488)"><g><path d="M 1.4375 0.03125 C 1.0625 0.03125 0.78125 -0.0546875 0.59375 -0.234375 C 0.414062 -0.410156 0.328125 -0.671875 0.328125 -1.015625 L 0.328125 -2.703125 L 0.859375 -2.703125 L 0.859375 -1.015625 C 0.859375 -0.816406 0.90625 -0.664062 1 -0.5625 C 1.09375 -0.46875 1.238281 -0.421875 1.4375 -0.421875 C 1.820312 -0.421875 2.015625 -0.617188 2.015625 -1.015625 L 2.015625 -2.703125 L 2.53125 -2.703125 L 2.53125 -1.015625 C 2.53125 -0.671875 2.441406 -0.410156 2.265625 -0.234375 C 2.085938 -0.0546875 1.8125 0.03125 1.4375 0.03125 Z M 1.4375 0.03125 "/></g></g></g><g fill="#ffffff" fill-opacity="1"><g transform="translate(117.61384, 73.151488)"><g><path d="M 1.203125 0.03125 C 1.015625 0.03125 0.847656 0.0078125 0.703125 -0.03125 C 0.554688 -0.0703125 0.429688 -0.128906 0.328125 -0.203125 C 0.234375 -0.285156 0.160156 -0.375 0.109375 -0.46875 L 0.40625 -0.828125 L 0.453125 -0.828125 C 0.535156 -0.703125 0.640625 -0.601562 0.765625 -0.53125 C 0.890625 -0.457031 1.035156 -0.421875 1.203125 -0.421875 C 1.347656 -0.421875 1.457031 -0.453125 1.53125 -0.515625 C 1.601562 -0.578125 1.640625 -0.660156 1.640625 -0.765625 C 1.640625 -0.828125 1.625 -0.878906 1.59375 -0.921875 C 1.570312 -0.960938 1.535156 -1 1.484375 -1.03125 C 1.429688 -1.0625 1.359375 -1.09375 1.265625 -1.125 L 0.90625 -1.203125 C 0.664062 -1.253906 0.484375 -1.34375 0.359375 -1.46875 C 0.242188 -1.601562 0.1875 -1.773438 0.1875 -1.984375 C 0.1875 -2.128906 0.222656 -2.257812 0.296875 -2.375 C 0.378906 -2.5 0.492188 -2.59375 0.640625 -2.65625 C 0.785156 -2.71875 0.960938 -2.75 1.171875 -2.75 C 1.378906 -2.75 1.554688 -2.71875 1.703125 -2.65625 C 1.847656 -2.601562 1.972656 -2.519531 2.078125 -2.40625 L 1.8125 -2.046875 L 1.765625 -2.046875 C 1.691406 -2.128906 1.601562 -2.191406 1.5 -2.234375 C 1.40625 -2.273438 1.296875 -2.296875 1.171875 -2.296875 C 1.023438 -2.296875 0.910156 -2.269531 0.828125 -2.21875 C 0.753906 -2.164062 0.71875 -2.09375 0.71875 -2 C 0.71875 -1.914062 0.742188 -1.847656 0.796875 -1.796875 C 0.847656 -1.742188 0.941406 -1.703125 1.078125 -1.671875 L 1.4375 -1.609375 C 1.695312 -1.546875 1.882812 -1.445312 2 -1.3125 C 2.125 -1.1875 2.1875 -1.015625 2.1875 -0.796875 C 2.1875 -0.628906 2.148438 -0.484375 2.078125 -0.359375 C 2.003906 -0.234375 1.890625 -0.132812 1.734375 -0.0625 C 1.585938 0 1.410156 0.03125 1.203125 0.03125 Z M 1.203125 0.03125 "/></g></g></g><g fill="#ffffff" fill-opacity="1"><g transform="translate(122.370913, 73.151488)"><g><path d="M 2.171875 -2.703125 L 2.171875 -2.265625 L 1.390625 -2.265625 L 1.390625 0 L 0.859375 0 L 0.859375 -2.265625 L 0.078125 -2.265625 L 0.078125 -2.703125 Z M 2.171875 -2.703125 "/></g></g></g><g fill="#ffffff" fill-opacity="1"><g transform="translate(127.046375, 73.151488)"><g><path d="M 0.359375 0 L 0.359375 -2.703125 L 1.4375 -2.703125 C 1.71875 -2.703125 1.929688 -2.640625 2.078125 -2.515625 C 2.222656 -2.390625 2.296875 -2.210938 2.296875 -1.984375 C 2.296875 -1.816406 2.253906 -1.679688 2.171875 -1.578125 C 2.085938 -1.472656 1.960938 -1.394531 1.796875 -1.34375 L 1.796875 -1.296875 C 1.878906 -1.253906 1.945312 -1.195312 2 -1.125 C 2.050781 -1.050781 2.097656 -0.945312 2.140625 -0.8125 L 2.421875 0 L 1.859375 0 L 1.609375 -0.8125 C 1.578125 -0.894531 1.539062 -0.957031 1.5 -1 C 1.46875 -1.039062 1.425781 -1.070312 1.375 -1.09375 C 1.320312 -1.113281 1.253906 -1.125 1.171875 -1.125 L 0.890625 -1.125 L 0.890625 0 Z M 1.375 -1.546875 C 1.632812 -1.546875 1.765625 -1.671875 1.765625 -1.921875 C 1.765625 -2.160156 1.632812 -2.28125 1.375 -2.28125 L 0.890625 -2.28125 L 0.890625 -1.546875 Z M 1.375 -1.546875 "/></g></g></g><g fill="#ffffff" fill-opacity="1"><g transform="translate(132.009333, 73.151488)"><g><path d="M 0.890625 0 L 0.359375 0 L 0.359375 -2.703125 L 0.890625 -2.703125 Z M 0.890625 0 "/></g></g></g><g fill="#ffffff" fill-opacity="1"><g transform="translate(135.679485, 73.151488)"><g><path d="M 0.890625 -1.1875 L 0.890625 -0.453125 L 2.1875 -0.453125 L 2.1875 0 L 0.359375 0 L 0.359375 -2.703125 L 2.15625 -2.703125 L 2.15625 -2.265625 L 0.890625 -2.265625 L 0.890625 -1.625 L 2 -1.625 L 2 -1.1875 Z M 0.890625 -1.1875 "/></g></g></g><g fill="#ffffff" fill-opacity="1"><g transform="translate(140.438414, 73.151488)"><g><path d="M 1.203125 0.03125 C 1.015625 0.03125 0.847656 0.0078125 0.703125 -0.03125 C 0.554688 -0.0703125 0.429688 -0.128906 0.328125 -0.203125 C 0.234375 -0.285156 0.160156 -0.375 0.109375 -0.46875 L 0.40625 -0.828125 L 0.453125 -0.828125 C 0.535156 -0.703125 0.640625 -0.601562 0.765625 -0.53125 C 0.890625 -0.457031 1.035156 -0.421875 1.203125 -0.421875 C 1.347656 -0.421875 1.457031 -0.453125 1.53125 -0.515625 C 1.601562 -0.578125 1.640625 -0.660156 1.640625 -0.765625 C 1.640625 -0.828125 1.625 -0.878906 1.59375 -0.921875 C 1.570312 -0.960938 1.535156 -1 1.484375 -1.03125 C 1.429688 -1.0625 1.359375 -1.09375 1.265625 -1.125 L 0.90625 -1.203125 C 0.664062 -1.253906 0.484375 -1.34375 0.359375 -1.46875 C 0.242188 -1.601562 0.1875 -1.773438 0.1875 -1.984375 C 0.1875 -2.128906 0.222656 -2.257812 0.296875 -2.375 C 0.378906 -2.5 0.492188 -2.59375 0.640625 -2.65625 C 0.785156 -2.71875 0.960938 -2.75 1.171875 -2.75 C 1.378906 -2.75 1.554688 -2.71875 1.703125 -2.65625 C 1.847656 -2.601562 1.972656 -2.519531 2.078125 -2.40625 L 1.8125 -2.046875 L 1.765625 -2.046875 C 1.691406 -2.128906 1.601562 -2.191406 1.5 -2.234375 C 1.40625 -2.273438 1.296875 -2.296875 1.171875 -2.296875 C 1.023438 -2.296875 0.910156 -2.269531 0.828125 -2.21875 C 0.753906 -2.164062 0.71875 -2.09375 0.71875 -2 C 0.71875 -1.914062 0.742188 -1.847656 0.796875 -1.796875 C 0.847656 -1.742188 0.941406 -1.703125 1.078125 -1.671875 L 1.4375 -1.609375 C 1.695312 -1.546875 1.882812 -1.445312 2 -1.3125 C 2.125 -1.1875 2.1875 -1.015625 2.1875 -0.796875 C 2.1875 -0.628906 2.148438 -0.484375 2.078125 -0.359375 C 2.003906 -0.234375 1.890625 -0.132812 1.734375 -0.0625 C 1.585938 0 1.410156 0.03125 1.203125 0.03125 Z M 1.203125 0.03125 "/></g></g></g></svg>